<svg width="14.604" height="14.604" viewBox="0 0 14.604 14.604" xmlns="http://www.w3.org/2000/svg"><g transform="translate(.25 .25)" stroke="#000" stroke-width=".5"><path transform="translate(0)" d="M2.066,14.1h9.972A2.068,2.068,0,0,0,14.1,12.038V2.066A2.068,2.068,0,0,0,12.038,0H2.066A2.068,2.068,0,0,0,0,2.066v9.972A2.068,2.068,0,0,0,2.066,14.1ZM.826,2.066A1.241,1.241,0,0,1,2.066.826h9.972a1.241,1.241,0,0,1,1.24,1.24v9.972a1.241,1.241,0,0,1-1.24,1.24H2.066a1.241,1.241,0,0,1-1.24-1.24Z"/><path transform="translate(-117.67 -117.67)" d="m124.72 128.44a3.719 3.719 0 1 0-3.719-3.719 3.723 3.723 0 0 0 3.719 3.719zm0-6.611a2.892 2.892 0 1 1-2.892 2.892 2.9 2.9 0 0 1 2.892-2.893z"/><path transform="translate(-351.06 -59.32)" d="M362.24,63.479A1.24,1.24,0,1,0,361,62.24,1.241,1.241,0,0,0,362.24,63.479Zm0-1.653a.413.413,0,1,1-.413.413A.414.414,0,0,1,362.24,61.826Z"/></g></svg>
