<svg width="14.519" height="14.519" viewBox="0 0 14.519 14.519" xmlns="http://www.w3.org/2000/svg"><g transform="translate(.25 .25)" stroke="#000" stroke-width=".5"><path d="m14.019 7.01a7.01 7.01 0 1 0-7.01 7.01 7.01 7.01 0 0 0 7.01-7.01zm-13.382 0a6.372 6.372 0 1 1 6.373 6.372 6.372 6.372 0 0 1-6.373-6.372z"/><path transform="translate(-218.7 -126.88)" d="M225.976,137.937v-4.046h1.335l.211-1.341h-1.546v-.672c0-.35.115-.684.617-.684h1v-1.338h-1.425c-1.2,0-1.525.789-1.525,1.882v.811h-.822v1.341h.822v4.046Z"/></g></svg>
