<svg xmlns="http://www.w3.org/2000/svg" width="21.071" height="21.071" viewBox="0 0 21.071 21.071"><path d="M21.071,10.535A10.535,10.535,0,1,0,10.535,21.071,10.536,10.536,0,0,0,21.071,10.535Zm-20.113,0a9.578,9.578,0,1,1,9.578,9.578A9.577,9.577,0,0,1,.958,10.535Z" fill="#fff"/><path d="M227.058,142v-6.081h2.007l.317-2.015h-2.324v-1.01c0-.526.172-1.028.927-1.028h1.508v-2.011h-2.142c-1.8,0-2.292,1.186-2.292,2.829V133.9h-1.236v2.016h1.236V142Z" transform="translate(-216.119 -125.385)" fill="#fff"/></svg>