<svg width="21.198" height="21.198" viewBox="0 0 21.198 21.198" xmlns="http://www.w3.org/2000/svg"><path transform="translate(0)" d="M3.105,21.2H18.093A3.109,3.109,0,0,0,21.2,18.093V3.105A3.109,3.109,0,0,0,18.093,0H3.105A3.109,3.109,0,0,0,0,3.105V18.093A3.109,3.109,0,0,0,3.105,21.2ZM1.242,3.105A1.865,1.865,0,0,1,3.105,1.242H18.093a1.865,1.865,0,0,1,1.863,1.863V18.093a1.865,1.865,0,0,1-1.863,1.863H3.105a1.865,1.865,0,0,1-1.863-1.863Z" fill="#fff"/><path transform="translate(-115.99 -115.99)" d="m126.59 132.18a5.589 5.589 0 1 0-5.589-5.59 5.6 5.6 0 0 0 5.589 5.59zm0-9.937a4.347 4.347 0 1 1-4.347 4.347 4.352 4.352 0 0 1 4.347-4.347z" fill="#fff"/><path transform="translate(-346.05 -58.474)" d="M362.863,64.726A1.863,1.863,0,1,0,361,62.863,1.865,1.865,0,0,0,362.863,64.726Zm0-2.484a.621.621,0,1,1-.621.621A.622.622,0,0,1,362.863,62.242Z" fill="#fff"/></svg>
