<svg xmlns="http://www.w3.org/2000/svg" width="14.02" height="14.02" viewBox="0 0 14.02 14.02"><g opacity="0.95"><path d="M7.7,99.73H5.133a.206.206,0,0,0-.206.206v8.249a.206.206,0,0,0,.206.206H7.7a.206.206,0,0,0,.206-.206V99.936A.206.206,0,0,0,7.7,99.73Z" transform="translate(-4.724 -94.371)"/><path d="M1.694.341A1.693,1.693,0,1,0,3.387,2.033,1.7,1.7,0,0,0,1.694.341Z" transform="translate(0 -0.341)"/><path d="M111.3,94.761a3.016,3.016,0,0,0-2.256.947v-.536a.206.206,0,0,0-.206-.206h-2.459a.206.206,0,0,0-.206.206v8.249a.206.206,0,0,0,.206.206h2.562a.206.206,0,0,0,.206-.206V99.34c0-1.375.374-1.911,1.332-1.911,1.044,0,1.127.859,1.127,1.982v4.01a.206.206,0,0,0,.206.206h2.563a.206.206,0,0,0,.206-.206V98.9C114.586,96.852,114.2,94.761,111.3,94.761Z" transform="translate(-100.566 -89.607)"/></g></svg>