<svg width="18.915" height="19.181" viewBox="0 0 18.915 19.181" xmlns="http://www.w3.org/2000/svg"><g fill="#fff" opacity=".95"><path transform="translate(-4.621 -93.567)" d="M9.1,99.73H5.237a.31.31,0,0,0-.31.31v12.4a.31.31,0,0,0,.31.31H9.1a.31.31,0,0,0,.31-.31v-12.4A.31.31,0,0,0,9.1,99.73Z"/><path transform="translate(0 -.341)" d="M2.547.341A2.544,2.544,0,1,0,5.091,2.885,2.548,2.548,0,0,0,2.547.341Z"/><path transform="translate(-99.9 -88.906)" d="M113.883,94.761a4.532,4.532,0,0,0-3.391,1.423v-.805a.31.31,0,0,0-.31-.31h-3.7a.31.31,0,0,0-.31.31v12.4a.31.31,0,0,0,.31.31h3.851a.31.31,0,0,0,.31-.31v-6.134c0-2.067.561-2.872,2-2.872,1.569,0,1.694,1.291,1.694,2.979v6.028a.31.31,0,0,0,.31.31h3.852a.31.31,0,0,0,.31-.31v-6.8C118.815,97.9,118.229,94.761,113.883,94.761Z"/></g></svg>
