<svg xmlns="http://www.w3.org/2000/svg" width="13.625" height="11.537" viewBox="0 0 13.625 11.537"><path d="M13.226,43.278q-.1.029-.2.055c-.411.1-.448-.033-.151-.335a2.739,2.739,0,0,0,.353-.441c.229-.356.03-.512-.359-.345q-.208.089-.423.161a1.771,1.771,0,0,1-1.329-.3,2.94,2.94,0,0,0-3.6.422,2.807,2.807,0,0,0-.852,2.06,3.075,3.075,0,0,0,.019.335c.02.184-.29.318-.71.259a8.057,8.057,0,0,1-2.585-.824,8.291,8.291,0,0,1-2.144-1.577c-.3-.3-.7-.277-.807.132a2.917,2.917,0,0,0-.1.765,2.836,2.836,0,0,0,.352,1.388,2.981,2.981,0,0,0,.41.576c.264.289.223.457-.144.354a4.729,4.729,0,0,1-.636-.246v.018a2.813,2.813,0,0,0,.662,1.852,2.9,2.9,0,0,0,.948.759c.38.188.556.293.344.32a3.01,3.01,0,0,1-.386.025q-.132,0-.276-.012c-.152-.013-.179.3.051.659a2.915,2.915,0,0,0,.7.746,2.848,2.848,0,0,0,.938.471c.407.116.489.328.126.545a5.689,5.689,0,0,1-2.984.809q-.184,0-.352-.008c-.194-.009-.064.162.311.358a8.085,8.085,0,0,0,3.808.921,8.513,8.513,0,0,0,2.911-.491,7.4,7.4,0,0,0,2.325-1.316,8.806,8.806,0,0,0,1.663-1.9,8.463,8.463,0,0,0,1.041-2.24A8.276,8.276,0,0,0,12.5,44.9c0-.07,0-.134,0-.189,0-.1.275-.388.583-.677q.209-.2.4-.412C13.757,43.305,13.633,43.16,13.226,43.278Z" transform="translate(-0.003 -41.648)"/></svg>