<svg width="20.837" height="17.645" viewBox="0 0 20.837 17.645" xmlns="http://www.w3.org/2000/svg"><g transform="translate(-14.003 -43.648)"><g transform="translate(14.003 43.648)"><path transform="translate(-.003 -41.648)" d="M20.226,44.141q-.154.045-.308.084c-.628.159-.686-.051-.231-.512a4.189,4.189,0,0,0,.54-.675c.35-.545.046-.782-.549-.528q-.319.136-.648.247A2.708,2.708,0,0,1,17,42.3a4.5,4.5,0,0,0-5.5.646,4.292,4.292,0,0,0-1.3,3.15,4.7,4.7,0,0,0,.029.513c.031.282-.444.487-1.085.4a12.323,12.323,0,0,1-3.954-1.26A12.68,12.68,0,0,1,1.9,43.337c-.453-.463-1.066-.423-1.235.2a4.461,4.461,0,0,0-.152,1.17,4.337,4.337,0,0,0,.538,2.123,4.558,4.558,0,0,0,.627.881c.4.443.342.7-.22.542a7.231,7.231,0,0,1-.972-.376v.028A4.3,4.3,0,0,0,1.5,50.739,4.431,4.431,0,0,0,2.949,51.9c.581.288.851.448.526.49a4.6,4.6,0,0,1-.591.038q-.2,0-.422-.019c-.232-.02-.274.464.078,1.008a4.458,4.458,0,0,0,1.074,1.141,4.357,4.357,0,0,0,1.434.72c.623.178.748.5.193.834A8.7,8.7,0,0,1,.678,57.349q-.282,0-.538-.012c-.3-.014-.1.247.476.548A12.364,12.364,0,0,0,6.44,59.293a13.019,13.019,0,0,0,4.452-.751,11.324,11.324,0,0,0,3.556-2.013,13.468,13.468,0,0,0,2.543-2.9A12.943,12.943,0,0,0,18.584,50.2a12.658,12.658,0,0,0,.524-3.577c0-.108,0-.2,0-.289,0-.16.42-.593.892-1.036q.32-.3.611-.63C21.037,44.183,20.847,43.96,20.226,44.141Z" fill="#fff"/></g></g></svg>
