<svg width="29" height="19" viewBox="0 0 29 19" xmlns="http://www.w3.org/2000/svg"><g transform="translate(-1676 -83)"><g transform="translate(1676 83)" fill="#868686"><path d="m9.5 18.5c-4.9626 0-9-4.0374-9-9 0-4.9626 4.0374-9 9-9 4.9626 0 9 4.0374 9 9 0 4.9626-4.0374 9-9 9z"/><path d="m9.5 1c-4.6869 0-8.5 3.8131-8.5 8.5 0 4.6869 3.8131 8.5 8.5 8.5 4.6869 0 8.5-3.8131 8.5-8.5 0-4.6869-3.8131-8.5-8.5-8.5m0-1c5.2467 0 9.5 4.2533 9.5 9.5 0 5.2467-4.2533 9.5-9.5 9.5-5.2467 0-9.5-4.2533-9.5-9.5 0-5.2467 4.2533-9.5 9.5-9.5z"/></g><g transform="translate(1686 83)" fill="rgba(17,166,60,0.62)" stroke-dasharray="3"><path d="M9.5,0A9.5,9.5,0,1,1,0,9.5,9.5,9.5,0,0,1,9.5,0Z"/><path d="m9.5 0c0.0022421 0 0.0046883 1.9073e-6 0.0069294 1.9073e-6 7.5436e-4 1.9073e-6 0.0015717 1.9073e-6 0.002326 3.8147e-6 0.0016012 0 0.0032043 1.9073e-6 0.0048056 5.722e-6 7.5436e-4 0 0.0016623 1.9073e-6 0.0024157 3.8147e-6 0.0019207 1.9073e-6 0.0033369 5.722e-6 0.0052576 9.5367e-6 6.2847e-4 1.9073e-6 0.0011158 1.9073e-6 0.0017443 3.8147e-6 0.0025606 5.722e-6 0.0044403 1.1444e-5 0.0070009 1.9073e-5 4.3964e-4 1.9073e-6 8.9931e-4 3.8147e-6 0.001339 5.722e-6 0.0019197 5.722e-6 0.0038681 1.3351e-5 0.0057878 1.9073e-5 6.9141e-4 3.8147e-6 0.0013428 5.722e-6 0.0020332 9.5367e-6 0.0019197 7.6294e-6 0.0032063 1.3351e-5 0.005126 2.0981e-5 7.534e-4 3.8147e-6 0.0014353 7.6294e-6 0.0021887 1.1444e-5 0.0019197 9.5367e-6 0.0037756 1.9073e-5 0.0056953 2.861e-5 5.0163e-4 3.8147e-6 8.5831e-4 3.8147e-6 0.0013609 7.6294e-6 0.0022383 1.1444e-5 0.0046101 2.6703e-5 0.0068483 4.0054e-5 7.534e-4 5.722e-6 0.0015507 1.1444e-5 0.0023041 1.5259e-5 0.0015984 1.1444e-5 0.003149 2.0981e-5 0.0047474 3.2425e-5 8.7833e-4 5.722e-6 0.0016289 1.1444e-5 0.0025072 1.7166e-5 0.0015984 1.1444e-5 0.0031776 2.4796e-5 0.004776 3.624e-5 8.1635e-4 5.722e-6 0.0015545 1.1444e-5 0.0023699 1.9073e-5 0.0022373 1.7166e-5 0.0045977 3.624e-5 0.006834 5.722e-5 1.2589e-4 0 2.2793e-4 1.9073e-6 3.5381e-4 1.9073e-6 0.0022364 1.9073e-5 0.0044594 4.0054e-5 0.0066957 6.1035e-5 6.9046e-4 7.6294e-6 0.0013342 1.3351e-5 0.0020237 1.9073e-5 0.0019169 1.9073e-5 0.0032625 3.2425e-5 0.0051794 5.1498e-5 6.8951e-4 7.6294e-6 0.0014381 1.5259e-5 0.0021276 2.2888e-5 0.0019169 1.9073e-5 0.0034657 3.624e-5 0.0053816 5.722e-5 5.6458e-4 5.722e-6 0.0011578 1.1444e-5 0.0017214 1.9073e-5 0.0025558 2.6703e-5 0.0044546 4.9591e-5 0.0070095 8.0109e-5 4.3869e-4 5.722e-6 8.5545e-4 9.5367e-6 0.0012951 1.5259e-5 0.0019159 2.2888e-5 0.0036888 4.3869e-5 0.0056038 6.8665e-5 8.1539e-4 9.5367e-6 0.0017509 2.2888e-5 0.0025663 3.2425e-5 0.001277 1.7166e-5 0.0032701 4.3869e-5 0.0045471 5.9128e-5 8.7738e-4 1.3351e-5 0.0015869 2.0981e-5 0.0024643 3.4332e-5 0.001915 2.4796e-5 0.0038443 5.1498e-5 0.0057592 8.0109e-5 3.7575e-4 3.8147e-6 8.0109e-4 9.5367e-6 0.0011778 1.5259e-5 0.002553 3.624e-5 0.0045147 6.485e-5 0.0070677 1.03e-4 5.0068e-4 7.6294e-6 0.0010691 1.7166e-5 0.0015707 2.4796e-5 0.001914 2.861e-5 0.0035057 5.3406e-5 0.0054197 8.3923e-5 7.515e-4 1.1444e-5 0.0015078 2.2888e-5 0.0022593 3.624e-5 0.001915 3.0518e-5 0.0031557 4.9591e-5 0.0050688 8.2016e-5 6.8951e-4 1.1444e-5 0.0013323 2.0981e-5 0.0020218 3.2425e-5 0.0022326 3.8147e-5 0.0047798 8.0109e-5 0.0070124 1.2016e-4 6.1989e-5 0 3.624e-5 0 9.9182e-5 1.9073e-6 0.0022326 3.8147e-5 0.004631 8.2016e-5 0.0068626 1.2207e-4 6.8855e-4 1.1444e-5 0.0013905 2.4796e-5 0.002079 3.8147e-5 0.0019131 3.4332e-5 0.0031605 5.722e-5 0.0050726 9.346e-5 7.515e-4 1.5259e-5 0.0014458 2.861e-5 0.0021973 4.1962e-5 0.0019131 3.624e-5 0.0037651 7.2479e-5 0.0056782 1.1063e-4 4.3774e-4 7.6294e-6 8.2493e-4 1.5259e-5 0.0012627 2.4796e-5 0.0025501 4.9591e-5 0.0046501 9.346e-5 0.0071993 1.4496e-4 2.5082e-4 5.722e-6 6.0368e-4 1.3351e-5 8.5354e-4 1.7166e-5 0.0019121 4.0054e-5 0.0042877 8.9645e-5 0.0061989 1.3161e-4 6.2561e-4 1.3351e-5 0.001255 2.6703e-5 0.0018806 4.0054e-5 0.0019121 4.0054e-5 0.0034046 7.2479e-5 0.0053158 1.1444e-4 6.876e-4 1.5259e-5 0.0012674 2.861e-5 0.001955 4.3869e-5 0.0019112 4.1962e-5 0.0042667 9.5367e-5 0.0061769 1.3924e-4 2.5082e-4 5.722e-6 6.2084e-4 1.3351e-5 8.707e-4 1.9073e-5 0.0025473 5.9128e-5 0.0045004 1.049e-4 0.0070477 1.6594e-4 5.6267e-4 1.3351e-5 0.0011539 2.6703e-5 0.0017157 4.0054e-5 0.0019112 4.5776e-5 0.0033884 8.2016e-5 0.0052986 1.2779e-4 7.5054e-4 1.9073e-5 0.0014753 3.624e-5 0.0022249 5.5313e-5 0.0015917 4.0054e-5 0.0034361 8.5831e-5 0.0050278 1.2589e-4 6.876e-4 1.7166e-5 0.0014534 3.624e-5 0.00214 5.3406e-5 0.0022287 5.722e-5 0.004653 1.1826e-4 0.0068808 1.7738e-4 1.8692e-4 3.8147e-6 3.9005e-4 9.5367e-6 5.7697e-4 1.5259e-5 0.0019093 4.9591e-5 0.0045528 1.2016e-4 0.0064621 1.7166e-4 6.2466e-4 1.5259e-5 0.0013437 3.624e-5 0.0019693 5.3406e-5 0.0019083 5.1498e-5 0.0032454 8.7738e-5 0.0051537 1.3924e-4 6.876e-4 1.9073e-5 0.0014963 4.1962e-5 0.002183 6.1035e-5 0.0019083 5.3406e-5 0.0034695 9.7275e-5 0.0053778 1.5068e-4 5.6171e-4 1.7166e-5 0.0010681 3.0518e-5 0.0016308 4.5776e-5 0.0025444 7.4387e-5 0.0045042 1.297e-4 0.0070486 2.0409e-4 3.7384e-4 1.1444e-5 6.3705e-4 1.9073e-5 0.0010109 3.0518e-5 0.0019083 5.5313e-5 0.0041914 1.2398e-4 0.0060987 1.812e-4 6.237e-4 1.9073e-5 0.0011816 3.624e-5 0.0018053 5.3406e-5 0.0019073 5.9128e-5 0.0035486 1.0872e-4 0.005456 1.6785e-4 6.237e-4 1.9073e-5 0.0011406 3.4332e-5 0.0017653 5.3406e-5 0.0019064 5.9128e-5 0.0044508 1.3924e-4 0.0063572 1.9836e-4 1.8787e-4 5.722e-6 5.4073e-4 1.7166e-5 7.2765e-4 2.2888e-5 0.0025425 8.2016e-5 0.0046167 1.4687e-4 0.0071583 2.3079e-4 4.3678e-4 1.3351e-5 8.4114e-4 2.6703e-5 0.001277 4.1962e-5 0.0019064 6.1035e-5 0.0039272 1.2779e-4 0.0058336 1.9073e-4 5.6076e-4 1.9073e-5 0.0011911 4.0054e-5 0.0017519 5.9128e-5 0.0019064 6.2943e-5 0.0040264 1.3351e-4 0.0059319 1.9836e-4 3.7384e-4 1.3351e-5 7.6962e-4 2.6703e-5 0.0011435 4.0054e-5 0.0050821 1.7166e-4 0.0093422 3.2043e-4 0.014421 5.0163e-4 4.3678e-4 1.5259e-5 9.3174e-4 3.2425e-5 0.0013685 4.9591e-5 0.0019045 6.6757e-5 0.0039902 1.4305e-4 0.0058947 2.1172e-4 4.9782e-4 1.7166e-5 9.9468e-4 3.624e-5 0.0014935 5.3406e-5 0.0022221 8.2016e-5 0.0043821 1.6212e-4 0.0066042 2.4414e-4 1.8692e-4 7.6294e-6 2.6703e-4 9.5367e-6 4.5395e-4 1.7166e-5 0.0025387 9.346e-5 0.0048208 1.7929e-4 0.0073595 2.7657e-4 2.4891e-4 9.5367e-6 4.9877e-4 1.9073e-5 7.4863e-4 2.861e-5 0.0019035 7.2479e-5 0.0044718 1.7166e-4 0.0063744 2.4414e-4 4.9877e-4 1.9073e-5 0.0010262 4.0054e-5 0.001524 5.9128e-5 0.0019035 7.4387e-5 0.0041189 1.6212e-4 0.0060215 2.3651e-4 3.7384e-4 1.5259e-5 7.2575e-4 2.861e-5 0.0010996 4.3869e-5 0.0050745 2.0027e-4 0.0094967 3.7956e-4 0.014569 5.8746e-4 3.7289e-4 1.5259e-5 5.97e-4 2.4796e-5 9.7084e-4 4.0054e-5 0.0019016 8.0109e-5 0.0042915 1.7929e-4 0.0061932 2.5749e-4 4.3583e-4 1.9073e-5 9.9564e-4 4.1962e-5 0.0014305 6.1035e-5 0.0019016 8.0109e-5 0.0041103 1.7357e-4 0.006011 2.5368e-4 3.7384e-4 1.7166e-5 8.8978e-4 3.8147e-5 0.0012636 5.5313e-5 0.0047531 2.0218e-4 0.0095711 4.1199e-4 0.014323 6.237e-4 4.9782e-4 2.0981e-5 8.8501e-4 3.8147e-5 0.0013828 6.1035e-5 0.0019007 8.3923e-5 0.0040026 1.7738e-4 0.0059032 2.6321e-4 4.9782e-4 2.2888e-5 9.5749e-4 4.3869e-5 0.0014553 6.6757e-5 0.0022163 9.9182e-5 0.0044823 2.0218e-4 0.0066986 3.0518e-4 1.2493e-4 5.722e-6 1.9836e-4 7.6294e-6 3.2234e-4 1.3351e-5 0.002533 1.1635e-4 0.0049849 2.3079e-4 0.0075178 3.4904e-4l5.8174e-5 1.9073e-6c0.0022154 1.049e-4 0.0047417 2.2316e-4 0.0069571 3.2806e-4 4.3583e-4 2.0981e-5 9.8228e-4 4.7684e-5 0.0014172 6.8665e-5 0.0018988 8.9645e-5 0.0041561 1.9836e-4 0.0060549 2.8992e-4 3.7289e-4 1.7166e-5 7.5531e-4 3.624e-5 0.0011282 5.3406e-5 0.0050631 2.4605e-4 0.0095091 4.6349e-4 0.01457 7.1526e-4 2.4796e-4 1.3351e-5 5.2547e-4 2.6703e-5 7.7343e-4 4.0054e-5 0.0018978 9.5367e-5 0.0042944 2.1553e-4 0.0061922 3.109e-4 5.5885e-4 2.861e-5 0.0011168 5.722e-5 0.0016756 8.5831e-5 0.0018978 9.5367e-5 0.0040989 2.079e-4 0.0059958 3.0518e-4 3.7289e-4 1.9073e-5 6.876e-4 3.624e-5 0.0010605 5.5313e-5 0.0050583 2.594e-4 0.0094318 4.8828e-4 0.014489 7.5722e-4 3.7193e-4 1.9073e-5 6.9332e-4 3.624e-5 0.0010662 5.722e-5 0.0018959 9.9182e-5 0.0042124 2.2316e-4 0.0061083 3.2616e-4 4.9591e-4 2.6703e-5 8.6784e-4 4.5776e-5 0.0013647 7.2479e-5 0.007267 3.9291e-4 0.014488 7.8964e-4 0.021751 0.0011978 3.0994e-4 1.7166e-5 6.7616e-4 3.8147e-5 9.861e-4 5.5313e-5 0.001895 1.0681e-4 0.0043869 2.4796e-4 0.0062809 3.5667e-4 3.7193e-4 2.0981e-5 7.5531e-4 4.1962e-5 0.0011272 6.2943e-5 0.0050516 2.8801e-4 0.0095453 5.4932e-4 0.014595 8.4496e-4 1.8597e-4 1.1444e-5 3.3855e-4 1.9073e-5 5.2452e-4 3.0518e-5 0.0025244 1.4877e-4 0.0043297 2.5558e-4 0.0068541 4.0436e-4 2.4796e-4 1.5259e-5 4.2152e-4 2.4796e-5 6.6853e-4 4.0054e-5 0.0025244 1.5068e-4 0.0044489 2.6512e-4 0.0069723 4.1771e-4 1.2398e-4 7.6294e-6 2.737e-4 1.5259e-5 3.9768e-4 2.2888e-5 0.0050468 3.0518e-4 0.0097141 5.8937e-4 0.014759 9.0027e-4 2.4796e-4 1.5259e-5 4.7112e-4 3.0518e-5 7.1907e-4 4.5776e-5 0.0022068 1.3542e-4 0.0043716 2.7084e-4 0.0065784 4.0817e-4 3.0899e-4 1.9073e-5 6.4087e-4 4.0054e-5 9.5081e-4 5.9128e-5 0.0025215 1.5831e-4 0.004528 2.8419e-4 0.0070496 4.4441e-4 6.1989e-5 3.8147e-6 5.6267e-5 3.8147e-6 1.1826e-4 7.6294e-6 0.005043 3.1853e-4 0.0097389 6.1989e-4 0.014779 9.4795e-4 2.4796e-4 1.7166e-5 5.0354e-4 3.2425e-5 7.5054e-4 4.9591e-5 0.0025206 1.6403e-4 0.0043097 2.8038e-4 0.0068302 4.4632e-4 1.8501e-4 1.1444e-5 2.8515e-4 1.9073e-5 4.7016e-4 3.0518e-5 0.0075598 4.9782e-4 0.014585 9.6703e-4 0.02214 0.001482 2.47e-4 1.7166e-5 4.6635e-4 3.2425e-5 7.143e-4 4.9591e-5 0.007555 5.1498e-4 0.01464 0.0010052 0.02219 0.0015373 6.1989e-5 5.722e-6 2.4891e-4 1.9073e-5 3.109e-4 2.2888e-5 0.0025167 1.7738e-4 0.0045919 3.2425e-4 0.0071087 5.0354e-4 1.2302e-4 9.5367e-6 3.0994e-4 2.2888e-5 4.3297e-4 3.0518e-5 0.0075483 5.3978e-4 0.014797 0.0010643 0.022341 0.0016212 6.1989e-5 3.8147e-6 1.9169e-4 1.3351e-5 2.5368e-4 1.9073e-5 0.010058 7.4005e-4 0.019754 0.0014706 0.029804 0.002243 1.2302e-4 9.5367e-6 2.8515e-4 2.2888e-5 4.0817e-4 3.2425e-5 0.017587 0.0013504 0.034949 0.0027351 0.052508 0.0041828 6.1989e-5 5.722e-6 -2.2888e-5 -1.9073e-6 3.8147e-5 3.8147e-6 0.010035 8.2588e-4 0.020025 0.001667 0.03005 0.0025253 6.1989e-5 3.8147e-6 -2.861e-5 -3.8147e-6 3.3379e-5 1.9073e-6 0.41103 0.035196 0.81455 0.09656 1.209 0.18243 0 0 4.673e-5 9.5367e-6 4.673e-5 9.5367e-6 0.0096197 0.0020943 0.019185 0.0041924 0.028793 0.0063152 0 0 4.1008e-5 9.5367e-6 4.1008e-5 9.5367e-6 0.0096092 0.0021229 0.018827 0.0041752 0.028426 0.0063286 2.3556e-4 5.1498e-5 4.8733e-4 1.0872e-4 7.2193e-4 1.6212e-4 0.0071983 0.0016136 0.013971 0.0031414 0.021164 0.0047722 5.9128e-5 1.3351e-5 1.1826e-4 2.6703e-5 1.7643e-4 4.0054e-5 0.0020971 4.7493e-4 0.0044289 0.0010052 0.006526 0.001482 2.9373e-4 6.6757e-5 6.5994e-4 1.5068e-4 9.5367e-4 2.1744e-4 0.0047932 0.001091 0.0091248 0.002079 0.013915 0.0031776 5.8174e-5 1.3351e-5 2.0313e-4 4.5776e-5 2.6131e-4 5.9128e-5 0.0020962 4.8065e-4 0.004343 9.9754e-4 0.0064383 0.0014782 4.1199e-4 9.5367e-5 8.0395e-4 1.8501e-4 0.001215 2.8038e-4 0.0017967 4.1389e-4 0.0038414 8.8501e-4 0.0056372 0.0012989 4.1103e-4 9.5367e-5 9.1839e-4 2.1172e-4 0.0013294 3.0708e-4 0.0044889 0.0010357 0.0089779 0.0020752 0.013464 0.0031185 4.7016e-4 1.0872e-4 9.4509e-4 2.1935e-4 0.0014143 3.2997e-4 0.0017948 4.158e-4 0.003582 8.3351e-4 0.0053749 0.0012512 5.2834e-4 1.2398e-4 0.0010643 2.4796e-4 0.0015926 3.7193e-4 0.0017939 4.1771e-4 0.0038166 8.9073e-4 0.0056105 0.0013103 3.5191e-4 8.2016e-5 7.2384e-4 1.6975e-4 0.0010767 2.5177e-4 0.0023909 5.6076e-4 0.0044737 0.001049 0.0068645 0.0016098 5.9128e-5 1.5259e-5 1.3065e-4 3.2425e-5 1.8883e-4 4.5776e-5 0.0020924 4.9019e-4 0.004282 0.0010071 0.0063734 0.0014992 5.2738e-4 1.2398e-4 0.0011654 2.7466e-4 0.0016928 4.0054e-4 0.0017929 4.2152e-4 0.0033913 7.9918e-4 0.0051832 0.0012226 4.6921e-4 1.1253e-4 0.0010614 2.5177e-4 0.0015306 3.624e-4 0.001792 4.2534e-4 0.0039558 9.3842e-4 0.0057478 0.0013618 3.5191e-4 8.3923e-5 6.9046e-4 1.6403e-4 0.0010424 2.4796e-4 0.002388 5.6648e-4 0.0043106 0.0010242 0.0066986 0.0015926 3.5095e-4 8.3923e-5 7.2098e-4 1.7357e-4 0.0010729 2.5749e-4 0.001791 4.2534e-4 0.0036364 8.6594e-4 0.0054264 0.0012951 6.4468e-4 1.5259e-4 0.0012827 3.0518e-4 0.0019264 4.5967e-4 0.00179 4.2915e-4 0.0033474 8.0109e-4 0.0051374 0.0012302 5.2643e-4 1.2589e-4 0.0010014 2.4033e-4 0.0015278 3.6621e-4 0.0020885 5.0163e-4 0.0044708 0.0010738 0.0065584 0.0015755 5.8174e-5 1.5259e-5 2.5749e-5 7.6294e-6 8.3923e-5 2.0981e-5 0.0020876 5.0354e-4 0.004487 0.0010815 0.0065737 0.001585 5.8556e-4 1.4114e-4 0.0011778 2.8419e-4 0.0017633 4.2725e-4 0.0017881 4.3106e-4 0.0030794 7.4387e-4 0.0048685 0.0011768 7.019e-4 1.6975e-4 0.001442 3.4904e-4 0.0021439 5.2071e-4 0.0014896 3.6049e-4 0.0032072 7.782e-4 0.0046968 0.0011406 6.4373e-4 1.564e-4 0.0012598 3.0518e-4 0.0019026 4.6158e-4 0.0017881 4.3488e-4 0.0037394 9.0981e-4 0.0055265 0.0013466 0.0011702 2.8419e-4 0.0023241 5.6648e-4 0.0034943 8.5258e-4 0.0011911 2.9182e-4 0.0024176 5.9128e-4 0.0036087 8.831e-4 0.0010519 2.5749e-4 0.0021029 5.1498e-4 0.0031557 7.7248e-4 0.0011902 2.9182e-4 0.0019665 4.8256e-4 0.0031567 7.7438e-4 0.001111 2.7275e-4 0.0021954 5.3787e-4 0.0033054 8.1062e-4 0.0011902 2.9373e-4 0.0021372 5.2643e-4 0.0033283 8.2016e-4 0.0012856 3.1662e-4 0.002676 6.5804e-4 0.0039616 9.7656e-4 0.0014877 3.6621e-4 0.0033875 8.3542e-4 0.0048742 0.0012035 0.0011683 2.8801e-4 0.0023851 5.8937e-4 0.0035543 8.7929e-4 8.9169e-4 2.2125e-4 0.0018196 4.5013e-4 0.0027122 6.7139e-4 0.0011673 2.8992e-4 0.0024557 6.1035e-4 0.003624 9.0027e-4 8.9169e-4 2.2125e-4 0.0018291 4.5395e-4 0.0027208 6.7711e-4 0.0012255 3.0327e-4 0.0025396 6.3133e-4 0.0037651 9.3651e-4 8.9169e-4 2.2125e-4 0.0012522 3.1281e-4 0.0021439 5.3406e-4 0.0027437 6.8474e-4 0.0055399 0.0013828 0.0082827 0.0020695 2.9659e-4 7.4387e-5 8.6594e-4 2.1744e-4 0.0011635 2.9182e-4 0.0014 3.5095e-4 0.0029392 7.3624e-4 0.0043392 0.0010872 5.9319e-4 1.5068e-4 0.001359 3.4142e-4 0.0019531 4.921e-4 0.0014 3.5095e-4 0.0028448 7.1335e-4 0.0042448 0.0010662 5.9414e-4 1.5068e-4 0.0011511 2.8992e-4 0.0017452 4.406e-4 0.0049562 0.0012474 0.010018 0.0025272 0.014972 0.0037842 2.9755e-4 7.4387e-5 4.9591e-4 1.2589e-4 7.9346e-4 2.0027e-4 0.0016308 4.1389e-4 0.0033531 8.5258e-4 0.0049839 0.0012665 2.9755e-4 7.6294e-5 5.827e-4 1.4877e-4 8.7929e-4 2.2507e-4 0.0016308 4.1389e-4 0.0033875 8.6212e-4 0.0050182 0.0012779 2.9755e-4 7.4387e-5 2.4033e-4 6.1035e-5 5.3692e-4 1.3542e-4 0.0072813 0.0018578 0.014567 0.003727 0.021842 0.0056 2.9564e-4 7.6294e-5 -1.4305e-5 -3.8147e-6 2.8229e-4 7.2479e-5 0.00739 0.0019054 0.014761 0.0038128 0.022144 0.0057354 0 0 3.5286e-5 9.5367e-6 3.5286e-5 9.5367e-6 0.18604 0.048418 0.36985 0.10233 0.55127 0.16156l-0.31035 0.95062c-0.84925-0.27726-1.7376-0.41784-2.6405-0.41784v-1zm5.6087 1.8316c0.80787 0.59188 1.5187 1.3083 2.1043 2.121l-0.81134 0.58457c-0.52523-0.72896-1.1591-1.3679-1.8839-1.8989l0.591-0.80668zm3.4473 4.7896c0.22954 0.72265 0.37492 1.4825 0.42475 2.2686 7.6294e-6 1.2016e-4 1.3351e-5 2.0981e-4 2.0981e-5 3.3092e-4 6.3896e-4 0.010086 0.0012474 0.01994 0.0018559 0.030035 3.8147e-6 6.0081e-5 1.9073e-6 3.5286e-5 5.722e-6 9.5367e-5 9.1171e-4 0.015142 0.0017776 0.030127 0.0026188 0.045287 3.8147e-6 6.0081e-5 1.1444e-5 2.0599e-4 1.5259e-5 2.6608e-4 4.1962e-4 0.0075808 8.1253e-4 0.014826 0.001215 0.022411 7.6294e-6 1.2016e-4 1.9073e-5 3.4618e-4 2.4796e-5 4.673e-4 1.3542e-4 0.0025282 2.3842e-4 0.0044985 3.7003e-4 0.0070276 7.6294e-6 1.2112e-4 1.7166e-5 3.1471e-4 2.2888e-5 4.3583e-4 2.6512e-4 0.0050583 4.9591e-4 0.0095577 7.534e-4 0.014617 1.9073e-5 3.6335e-4 3.624e-5 7.2956e-4 5.5313e-5 0.0010929 9.5367e-5 0.0018978 2.2697e-4 0.0044928 3.2043e-4 0.0063915 1.5259e-5 3.0231e-4 2.6703e-5 5.2834e-4 4.1962e-5 8.3065e-4 2.5368e-4 0.0050611 4.8447e-4 0.0097799 7.2861e-4 0.014843l5.722e-6 1.1826e-4c1.0681e-4 0.0022154 2.2888e-4 0.0047617 3.3379e-4 0.0069771 1.5259e-5 3.0231e-4 3.2425e-5 6.5804e-4 4.5776e-5 9.613e-4 3.624e-4 0.007596 6.7329e-4 0.014329 0.0010166 0.02193 1.3351e-5 3.0231e-4 2.6703e-5 5.9128e-4 4.0054e-5 8.9455e-4 1.1444e-4 0.0025339 1.9836e-4 0.0043821 3.109e-4 0.006916 1.9073e-6 6.1035e-5 1.1444e-5 2.5749e-4 1.3351e-5 3.1853e-4 2.2507e-4 0.0050678 4.2343e-4 0.0096445 6.4087e-4 0.014715 1.3351e-5 3.0231e-4 2.6703e-5 6.2752e-4 4.0054e-5 9.2983e-4 9.5367e-5 0.0022192 1.8883e-4 0.0044556 2.8229e-4 0.0066738 7.6294e-6 1.8215e-4 1.9073e-5 4.3106e-4 2.6703e-5 6.1321e-4 2.1172e-4 0.0050716 4.0054e-4 0.009656 6.0654e-4 0.014729 9.5367e-6 2.4223e-4 1.9073e-5 4.9877e-4 2.861e-5 7.4196e-4 8.9645e-5 0.0022192 1.7738e-4 0.0044203 2.6703e-4 0.0066404 1.1444e-5 3.0327e-4 2.0981e-5 5.3883e-4 3.2425e-5 8.4209e-4 2.0027e-4 0.0050745 3.7384e-4 0.0095177 5.6648e-4 0.014594 1.1444e-5 3.0327e-4 2.2888e-5 6.2466e-4 3.4332e-5 9.2793e-4 7.2479e-5 0.0019035 1.7166e-4 0.0045147 2.4223e-4 0.0064182 1.3351e-5 3.643e-4 2.4796e-5 6.7711e-4 3.8147e-5 0.0010414 1.8883e-4 0.0050774 3.5286e-4 0.0095854 5.3406e-4 0.014666 7.6294e-6 1.8215e-4 7.6294e-6 2.1935e-4 1.5259e-5 4.015e-4 7.8201e-5 0.0022221 1.564e-4 0.0044165 2.327e-4 0.0066395 1.7166e-5 4.8542e-4 3.2425e-5 8.9931e-4 4.9591e-5 0.0013857 7.6294e-5 0.0022221 1.545e-4 0.0044746 2.3079e-4 0.0066977 3.8147e-6 1.2112e-4 5.722e-6 1.7262e-4 9.5367e-6 2.9469e-4 8.5831e-5 0.0025406 1.6975e-4 0.005002 2.5368e-4 0.0075436v1.7166e-5c7.4387e-5 0.002223 1.5831e-4 0.0047998 2.3079e-4 0.0070238 1.7166e-5 4.8637e-4 3.0518e-5 9.1076e-4 4.5776e-5 0.0013971 6.1035e-5 0.0019064 1.2779e-4 0.0039835 1.8883e-4 0.0058899 1.5259e-5 4.8637e-4 2.861e-5 8.9073e-4 4.3869e-5 0.0013771 1.5068e-4 0.0047674 2.9755e-4 0.0095215 4.406e-4 0.01429 1.3351e-5 4.2629e-4 2.861e-5 9.4414e-4 4.1962e-5 0.0013695 5.722e-5 0.0019073 1.2207e-4 0.0040894 1.7738e-4 0.0059967 1.3351e-5 4.2629e-4 2.6703e-5 8.5258e-4 3.8147e-5 0.0012789 6.485e-5 0.0022259 1.3542e-4 0.0046644 1.9836e-4 0.0068913 3.8147e-6 1.2112e-4 5.722e-6 1.7548e-4 9.5367e-6 2.9659e-4 7.2479e-5 0.0025444 1.297e-4 0.0045872 2.0027e-4 0.0071316 1.1444e-5 4.2629e-4 2.6703e-5 9.9087e-4 3.8147e-5 0.0014172 5.3406e-5 0.0019083 1.0681e-4 0.0038481 1.5831e-4 0.0057564 1.5259e-5 5.4836e-4 3.0518e-5 0.001112 4.3869e-5 0.0016594 5.1498e-5 0.0019093 1.0872e-4 0.004076 1.6022e-4 0.0059853 9.5367e-6 3.6526e-4 2.0981e-5 8.1635e-4 3.0518e-5 0.0011816 6.6757e-5 0.0025463 1.1444e-4 0.0044155 1.7929e-4 0.0069618 1.3351e-5 5.4836e-4 2.4796e-5 9.8991e-4 3.8147e-5 0.0015373 4.7684e-5 0.0019102 9.1553e-5 0.0036631 1.3924e-4 0.0055733 1.7166e-5 6.6948e-4 2.861e-5 0.0011978 4.5776e-5 0.0018682 4.7684e-5 0.0019102 8.9645e-5 0.0036869 1.3542e-4 0.0055971 1.3351e-5 5.4836e-4 2.4796e-5 0.0010118 3.624e-5 0.0015602 6.1035e-5 0.0025473 1.0681e-4 0.0045118 1.6594e-4 0.0070591 5.722e-6 2.4414e-4 9.5367e-6 4.4346e-4 1.5259e-5 6.876e-4 4.3869e-5 0.0019112 9.7275e-5 0.0043144 1.4114e-4 0.0062256 1.5259e-5 6.7043e-4 2.861e-5 0.0012875 4.1962e-5 0.0019579 4.3869e-5 0.0019112 7.8201e-5 0.0034876 1.1826e-4 0.0053988 1.3351e-5 6.094e-4 2.4796e-5 0.0011559 3.8147e-5 0.0017653 9.5367e-5 0.0044603 1.9836e-4 0.0094681 2.861e-4 0.01393 1.3351e-5 6.7043e-4 2.4796e-5 0.0012655 3.8147e-5 0.001936 3.8147e-5 0.0019121 6.6757e-5 0.0033712 1.03e-4 0.0052834 1.3351e-5 6.7139e-4 2.6703e-5 0.0013523 3.8147e-5 0.0020237 3.624e-5 0.0019121 7.8201e-5 0.004138 1.1253e-4 0.0060511 5.722e-6 3.0518e-4 1.1444e-5 5.9319e-4 1.7166e-5 8.9836e-4 4.0054e-5 0.0022316 8.3923e-5 0.0046568 1.2207e-4 0.0068884 1.1444e-5 6.7139e-4 2.2888e-5 0.0012941 3.4332e-5 0.0019646 3.2425e-5 0.001914 5.5313e-5 0.0032215 8.7738e-5 0.0051346 1.1444e-5 7.3242e-4 2.4796e-5 0.0014935 3.624e-5 0.0022259 3.2425e-5 0.001914 5.722e-5 0.0034313 8.7738e-5 0.0053453 7.6294e-6 4.8828e-4 1.7166e-5 0.0011215 2.4796e-5 0.0016098 4.1962e-5 0.002552 6.8665e-5 0.0043325 1.0681e-4 0.0068846 7.6294e-6 5.4932e-4 1.5259e-5 0.0010757 2.4796e-5 0.0016251 2.861e-5 0.001915 5.1498e-5 0.0035143 7.8201e-5 0.0054293 1.1444e-5 7.3242e-4 2.2888e-5 0.0015144 3.2425e-5 0.0022478 2.2888e-5 0.0015955 4.7684e-5 0.0033474 6.8665e-5 0.0049429 9.5367e-6 6.7139e-4 1.9073e-5 0.0014029 2.861e-5 0.0020742 3.0518e-5 0.0022345 5.9128e-5 0.0044727 8.7738e-5 0.0067081 7.6294e-6 6.1035e-4 1.5259e-5 0.0012589 2.2888e-5 0.0018702 2.0981e-5 0.0015965 4.5776e-5 0.0036116 6.485e-5 0.005208 9.5367e-6 7.9441e-4 1.7166e-5 0.0015402 2.6703e-5 0.0023346 1.9073e-5 0.0015965 3.624e-5 0.00315 5.5313e-5 0.0047474 7.6294e-6 7.9346e-4 1.7166e-5 0.0015516 2.4796e-5 0.002346 2.4796e-5 0.0022354 4.7684e-5 0.0042553 7.0572e-5 0.0064917 1.9073e-6 3.0518e-4 5.722e-6 6.5231e-4 9.5367e-6 9.5749e-4 1.9073e-5 0.0019169 4.3869e-5 0.0044041 6.2943e-5 0.006321 5.722e-6 7.3338e-4 1.3351e-5 0.0014992 2.0981e-5 0.0022326 1.1444e-5 0.0012779 3.0518e-5 0.003459 4.1962e-5 0.0047379 7.6294e-6 7.9441e-4 1.5259e-5 0.0016336 2.0981e-5 0.0024281 1.7166e-5 0.0019178 3.0518e-5 0.0034304 4.5776e-5 0.0053482 3.8147e-6 5.5027e-4 9.5367e-6 0.0011072 1.3351e-5 0.0016575 1.7166e-5 0.0022373 3.4332e-5 0.0044909 4.9591e-5 0.0067291 5.722e-6 7.3338e-4 1.1444e-5 0.001502 1.7166e-5 0.0022354 9.5367e-6 0.0015984 2.0981e-5 0.0030489 3.0518e-5 0.0046473 5.722e-6 8.564e-4 1.1444e-5 0.0017929 1.7166e-5 0.0026493 9.5367e-6 0.0015984 1.9073e-5 0.003232 2.861e-5 0.0048313 3.8147e-6 7.3338e-4 7.6294e-6 0.0013962 1.1444e-5 0.0021305 1.3351e-5 0.0022383 2.4796e-5 0.004529 3.624e-5 0.0067682 1.9073e-6 5.5122e-4 3.8147e-6 0.0011768 7.6294e-6 0.0017271 7.6294e-6 0.0019197 1.5259e-5 0.0033512 2.2888e-5 0.00527 1.9073e-6 7.3433e-4 5.722e-6 0.0015345 7.6294e-6 0.0022688 7.6294e-6 0.0016003 1.3351e-5 0.0033884 1.9073e-5 0.0049887 1.9073e-6 6.7329e-4 3.8147e-6 0.0014734 5.722e-6 0.0021467 7.6294e-6 0.0022392 1.5259e-5 0.0046263 1.9073e-5 0.0068665 1.9073e-6 3.0613e-4 1.9073e-6 7.3147e-4 3.8147e-6 0.0010366 3.8147e-6 0.0019207 7.6294e-6 0.0039139 1.1444e-5 0.0058346 0 7.9632e-4 1.9073e-6 0.0015535 1.9073e-6 0.0023489 3.8147e-6 0.0016012 5.722e-6 0.0032482 5.722e-6 0.0048494 1.9073e-6 7.9632e-4 1.9073e-6 0.0015011 3.8147e-6 0.0022964 0 0.0022421 1.9073e-6 0.0046148 1.9073e-6 0.0068569 0 0.0029221-1.9073e-6 0.0058422-3.8147e-6 0.0087633-1.9073e-6 9.6035e-4 -1.9073e-6 0.0014791-3.8147e-6 0.0024395-1.9073e-6 0.0022011-5.722e-6 0.0044031-9.5367e-6 0.0066042-1.9073e-6 6.3992e-4 -3.8147e-6 0.0017166-3.8147e-6 0.0023575-5.722e-6 0.0025539-1.1444e-5 0.0051088-1.9073e-5 0.0076628-1.9073e-6 3.2043e-4 -1.9073e-6 5.7316e-4 -3.8147e-6 8.9359e-4 -4.5776e-5 0.015713-1.3161e-4 0.031421-2.5558e-4 0.047119l-0.99997-0.0078201c1.812e-4 -0.02265 2.7084e-4 -0.04532 2.7084e-4 -0.06802 0-0.87978-0.13361-1.7465-0.39711-2.5761l0.95308-0.30272zm-0.99508 5.5837 0.9481 0.31798c-0.10847 0.32342-0.23381 0.63895-0.37509 0.94578-2.4796e-5 5.5313e-5 -8.2016e-5 1.7834e-4 -1.0872e-4 2.346e-4 -0.0040207 0.0087347-0.0079098 0.017146-0.011957 0.025867-5.1498e-5 1.1063e-4 -1.6022e-4 3.4332e-4 -2.1172e-4 4.549e-4 -0.0010109 0.0021801-0.0017319 0.0037298-0.0027447 0.005909-7.8201e-5 1.6689e-4 -2.079e-4 4.4537e-4 -2.8419e-4 6.1131e-4 -0.0030403 0.0065384-0.0058727 0.012609-0.0089283 0.01914-7.8201e-5 1.6594e-4 -2.0981e-4 4.4918e-4 -2.8801e-4 6.1512e-4 -8.9073e-4 0.0019045-0.0017757 0.0037947-0.0026684 0.0056992-1.049e-4 2.2125e-4 -2.6321e-4 5.6171e-4 -3.6812e-4 7.8297e-4 -0.0010185 0.0021763-0.0018387 0.0039215-0.0028591 0.0060968-2.6703e-5 5.5313e-5 -3.0518e-5 6.485e-5 -5.722e-5 1.2016e-4 -0.0020428 0.0043497-0.0039558 0.0084143-0.0060062 0.012761-1.297e-4 2.7657e-4 -2.594e-4 5.5122e-4 -3.9101e-4 8.2779e-4 -7.6866e-4 0.0016308-0.0017242 0.0036545-0.0024929 0.0052834-2.346e-4 4.9782e-4 -4.2343e-4 8.9455e-4 -6.5804e-4 0.0013924-7.7057e-4 0.0016289-0.0016232 0.0034342-0.0023937 0.0050631-1.8311e-4 3.8624e-4 -3.2043e-4 6.7425e-4 -5.0354e-4 0.0010605-0.0020542 0.0043421-0.0039272 0.0082903-0.0059891 0.012629-2.6703e-5 5.5313e-5 -8.7738e-5 1.8406e-4 -1.1444e-4 2.3937e-4 -9.0218e-4 0.0018988-0.0018158 0.0038157-0.002718 0.0057135-2.3651e-4 4.9686e-4 -4.6539e-4 9.7466e-4 -7.019e-4 0.0014715-7.7438e-4 0.001627-0.0014801 0.0031071-0.0022545 0.0047321-2.6321e-4 5.5218e-4 -4.7493e-4 9.9373e-4 -7.3814e-4 0.001545-7.7629e-4 0.0016251-0.0015659 0.0032806-0.0023422 0.0049057-2.1172e-4 4.406e-4 -3.7575e-4 7.8773e-4 -5.8746e-4 0.0012283-0.0010357 0.0021667-0.0018864 0.0039425-0.002924 0.0061092-1.3161e-4 2.7466e-4 -2.4986e-4 5.2071e-4 -3.8147e-4 7.9727e-4 -7.782e-4 0.0016241-0.0016804 0.0035038-0.0024586 0.0051279-3.1853e-4 6.609e-4 -6.752e-4 0.0014048-9.9182e-4 0.0020647-6.5041e-4 0.0013533-0.001255 0.0026131-0.0019054 0.0039654-3.4523e-4 7.1621e-4 -7.0763e-4 0.0014725-0.0010529 0.0021887-6.5041e-4 0.0013523-0.0011272 0.0023422-0.0017776 0.0036945-3.9864e-4 8.2588e-4 -8.4877e-4 0.0017633-0.0012474 0.0025892-6.5231e-4 0.0013523-0.0012417 0.0025749-0.001894 0.0039253-5.0354e-4 0.0010462-9.7084e-4 0.0020132-0.0014763 0.0030594-6.5231e-4 0.0013504-0.0014877 0.0030813-0.002142 0.0044327-4.2534e-4 8.7929e-4 -8.3351e-4 0.0017204-0.0012589 0.0026016-6.5422e-4 0.0013504-0.0010109 0.0020866-0.0016651 0.003437-4.2534e-4 8.7929e-4 -8.3923e-4 0.0017328-0.0012665 0.0026121-5.2261e-4 0.0010805-0.0011005 0.0022697-0.0016251 0.0033503-4.2534e-4 8.7929e-4 -8.3542e-4 0.0017223-0.0012627 0.0026016-6.5613e-4 0.0013504-0.0013103 0.0026979-0.0019665 0.0040474-2.9373e-4 6.0463e-4 -5.9509e-4 0.0012245-8.8882e-4 0.0018291-0.0010509 0.0021572-0.0017643 0.003624-0.0028172 0.0057812-3.2043e-4 6.5899e-4 -7e-4 0.0014362-0.0010223 0.0020952-6.5613e-4 0.0013475-0.0011597 0.0023775-0.0018177 0.003726-4.5586e-4 9.3269e-4 -8.9645e-4 0.0018358-0.0013523 0.0027695-5.2643e-4 0.0010777-9.4795e-4 0.0019398-0.0014763 0.0030184-5.0926e-4 0.0010424-9.9754e-4 0.002038-0.0015068 0.0030804-3.9673e-4 8.0776e-4 -0.0010071 0.0020561-0.0014038 0.0028639-4.8256e-4 9.8801e-4 -9.4223e-4 0.0019245-0.0014267 0.0029125-5.2834e-4 0.0010767-0.0011272 0.0022964-0.0016556 0.0033741-8.0872e-4 0.0016451-0.0016346 0.0033264-0.0024433 0.0049706-5.2834e-4 0.0010777-9.3842e-4 0.0019112-0.0014687 0.0029879-5.1117e-4 0.0010414-0.0010338 0.0021-0.0015469 0.0031404-3.9673e-4 8.0776e-4 -8.564e-4 0.0017395-0.0012531 0.0025463-5.4169e-4 0.0010967-0.0011101 0.0022516-0.0016518 0.0033474-3.9673e-4 8.0681e-4 -8.5068e-4 0.0017262-0.0012493 0.002533-5.6839e-4 0.0011501-0.0011101 0.0022469-0.0016785 0.003397-3.9864e-4 8.0681e-4 -5.0163e-4 0.0010147-9.0027e-4 0.0018215-0.0014629 0.0029554-0.0028877 0.0058346-0.0043526 0.0087891l-1.1444e-4 2.327e-4c-6.5231e-4 0.0013132-0.0012741 0.0025654-0.0019245 0.0038776-2.6703e-4 5.3692e-4 -6.6566e-4 0.0013399-9.3269e-4 0.0018768-6.5231e-4 0.0013123-0.0013008 0.0026188-0.0019531 0.003931-2.6703e-4 5.3596e-4 -5.7793e-4 0.0011606-8.4496e-4 0.0016975-6.5231e-4 0.0013123-0.0012932 0.0025997-0.0019455 0.0039101-2.6894e-4 5.3787e-4 -5.8365e-4 0.0011692-8.5068e-4 0.0017052-0.0022602 0.0045357-0.0045223 0.0090656-0.0067883 0.013597-1.3542e-4 2.6798e-4 -3.9101e-4 7.8106e-4 -5.2643e-4 0.00105-6.8283e-4 0.0013638-0.0013885 0.0027733-0.0020733 0.004138-2.6703e-4 5.3596e-4 -5.5695e-4 0.001111-8.2588e-4 0.001647-6.8283e-4 0.0013647-0.0013218 0.0026369-0.0020065 0.0040007-2.6894e-4 5.3596e-4 -4.6349e-4 9.2411e-4 -7.3242e-4 0.0014601-7.1335e-4 0.0014181-0.0014362 0.0028601-0.0021496 0.0042782-1.3542e-4 2.6703e-4 1.0681e-4 -2.1172e-4 -2.861e-5 5.5313e-5 -0.0025501 0.0050716-0.0050831 0.010098-0.0076408 0.015163-1.3542e-4 2.6703e-4 -2.4605e-4 4.8828e-4 -3.8147e-4 7.5531e-4 -7.1526e-4 0.0014172-0.0014992 0.0029669-0.0022163 0.0043831-1.3542e-4 2.6703e-4 -5.3215e-4 0.0010509-6.6757e-4 0.001318-0.0033607 0.0066433-0.0067673 0.013355-0.010143 0.019989-1.3733e-4 2.6703e-4 1.9073e-5 -4.0054e-5 -1.1635e-4 2.2697e-4 -8.297e-4 0.0016308-0.0016594 0.0032597-0.002491 0.0048904 0 0-2.5177e-4 4.9496e-4 -2.5177e-4 4.9496e-4 -0.0097008 0.019025-0.01947 0.038026-0.029293 0.056976l-9.5367e-5 1.8406e-4c-0.23712 0.45736-0.51035 0.89306-0.81587 1.3032l-0.80195-0.59738c0.53757-0.72166 0.95456-1.5182 1.2394-2.3674zm-3.1532 4.2362 0.57811 0.81596c-0.80861 0.57286-1.711 1.0227-2.6792 1.3217l-0.29505-0.95549c0.85588-0.26428 1.6621-0.66201 2.3962-1.1821zm-7.6766 1.0981c0.84511 0.29101 1.731 0.44572 2.633 0.45983l-0.01563 0.99988c-0.23035-0.0036049-0.45863-0.0154-0.68472-0.03512-6.1035e-5 -5.722e-6 -2.6703e-5 -1.9073e-6 -8.8692e-5 -7.6294e-6 -0.007515-6.5613e-4 -0.014718-0.0012932-0.022228-0.0019665-1.8501e-4 -1.5259e-5 -4.4346e-4 -3.8147e-5 -6.2847e-4 -5.5313e-5 -0.0025034-2.2507e-4 -0.0045309-4.0627e-4 -0.0070333-6.3324e-4 -6.1989e-5 -5.722e-6 -1.2016e-4 -1.1444e-5 -1.812e-4 -1.7166e-5 -0.0050058-4.5204e-4 -0.0098095-8.9073e-4 -0.014812-0.0013504-1.2302e-4 -1.1444e-5 -3.6812e-4 -3.4332e-5 -4.921e-4 -4.5776e-5 -0.0021887-2.0027e-4 -0.0044794-4.1199e-4 -0.0066681-6.1607e-4 -3.0804e-4 -2.861e-5 -6.361e-4 -5.9128e-5 -9.4414e-4 -8.7738e-5 -0.0025015-2.3079e-4 -0.0042667-3.9673e-4 -0.0067682-6.2943e-4 -1.2302e-4 -1.1444e-5 -2.7084e-4 -2.4796e-5 -3.9387e-4 -3.8147e-5 -0.0050011-4.673e-4 -0.0095158-8.9264e-4 -0.014515-0.0013695-3.6907e-4 -3.4332e-5 -6.3992e-4 -6.1035e-5 -0.001009-9.5367e-5 -0.0018749-1.7929e-4 -0.0044022-4.1962e-4 -0.0062761-6.0081e-4 -3.0804e-4 -2.861e-5 -7.3624e-4 -7.0572e-5 -0.0010443-9.9182e-5 -0.0024986-2.4033e-4 -0.004427-4.2534e-4 -0.0069256-6.6757e-4 -6.1035e-5 -5.722e-6 -7.7248e-5 -7.6294e-6 -1.3828e-4 -1.3351e-5 -0.0024986-2.4223e-4 -0.0048742-4.7302e-4 -0.0073719-7.1716e-4 -1.8501e-4 -1.7166e-5 -2.6226e-4 -2.4796e-5 -4.4632e-4 -4.3869e-5 -0.0021858-2.1172e-4 -0.0042305-4.1389e-4 -0.0064163-6.2752e-4 -6.1417e-4 -6.1035e-5 -0.0011997-1.1826e-4 -0.0018148-1.7929e-4 -0.0018721-1.8311e-4 -0.0033932-3.3379e-4 -0.0052652-5.188e-4 -6.1512e-4 -6.1035e-5 -0.0011616-1.1635e-4 -0.0017757-1.7738e-4 -0.001873-1.8501e-4 -0.0043211-4.2915e-4 -0.0061932-6.1607e-4 -3.0804e-4 -3.0518e-5 -4.8256e-4 -4.7684e-5 -7.8964e-4 -7.8201e-5 -0.0024958-2.4986e-4 -0.0044031-4.406e-4 -0.0068989-6.9237e-4 -6.1321e-4 -6.2943e-5 -0.0012407-1.2589e-4 -0.0018549-1.8692e-4 -0.0018711-1.8883e-4 -0.0029335-2.9755e-4 -0.0048046-4.8637e-4 -9.2125e-4 -9.346e-5 -0.0017424-1.7738e-4 -0.0026627-2.7084e-4 -0.0015593-1.5831e-4 -0.0029278-2.9755e-4 -0.004487-4.5776e-4 -7.9823e-4 -8.2016e-5 -0.0015202-1.545e-4 -0.0023174-2.3651e-4 -0.002183-2.2316e-4 -0.0045376-4.6539e-4 -0.0067196-6.9046e-4 -1.8406e-4 -1.9073e-5 -3.5477e-4 -3.624e-5 -5.3883e-4 -5.5313e-5 -0.0018702-1.9264e-4 -0.0043268-4.4823e-4 -0.006197-6.4278e-4 -7.9727e-4 -8.2016e-5 -0.0016775-1.7357e-4 -0.0024748-2.5749e-4 -0.0012474-1.297e-4 -0.0030441-3.1662e-4 -0.0042906-4.4632e-4 -9.8228e-4 -1.03e-4 -0.0018339-1.9264e-4 -0.0028152-2.9564e-4 -0.0015583-1.6403e-4 -0.0031195-3.2806e-4 -0.0046768-4.921e-4 -6.7425e-4 -7.0572e-5 -0.0012503-1.3161e-4 -0.0019245-2.0218e-4 -0.0024929-2.6321e-4 -0.0042362-4.4823e-4 -0.0067272-7.1335e-4 -6.1321e-4 -6.485e-5 -0.0012646-1.3351e-4 -0.0018778-2.0027e-4 -0.0015574-1.6594e-4 -0.0032864-3.4904e-4 -0.0048437-5.1689e-4 -9.1934e-4 -9.7275e-5 -0.0018969-2.0218e-4 -0.0028162-3.0136e-4 -0.0012455-1.3351e-4 -0.0027189-2.9182e-4 -0.0039644-4.2725e-4 -9.1839e-4 -9.9182e-5 -0.0019674-2.1172e-4 -0.0028868-3.109e-4 -0.0015564-1.6785e-4 -0.002717-2.9373e-4 -0.0042734-4.6349e-4 -8.5831e-4 -9.1553e-5 -0.0017347-1.8692e-4 -0.0025921-2.8038e-4 -0.0018673-2.0409e-4 -0.004427-4.8256e-4 -0.0062943-6.8665e-4 -9.1839e-4 -1.0109e-4 -0.0017958-1.9836e-4 -0.0027151-2.9755e-4 -0.0015554-1.7166e-4 -0.002532-2.7847e-4 -0.0040874-4.5013e-4 -9.1839e-4 -1.0109e-4 -0.0019217-2.1172e-4 -0.00284-3.1281e-4 -0.0012445-1.3733e-4 -0.0028114-3.109e-4 -0.004056-4.5013e-4 -9.1839e-4 -1.0109e-4 -0.0019999-2.2125e-4 -0.0029182-3.2425e-4 -0.0015545-1.7166e-4 -0.0030699-3.4142e-4 -0.0046244-5.1498e-4 -0.0010405-1.1635e-4 -0.0021954-2.4605e-4 -0.0032358-3.624e-4 -0.0015545-1.7357e-4 -0.0035763-4.0054e-4 -0.0051308-5.7602e-4 -9.7942e-4 -1.1063e-4 -0.0019045-2.1553e-4 -0.002883-3.2616e-4 -0.0012436-1.3924e-4 -0.0027189-3.0708e-4 -0.0039625-4.4823e-4 -0.0010405-1.1635e-4 -0.0019999-2.2507e-4 -0.0030394-3.4332e-4 -0.0012436-1.4305e-4 -0.0023937-2.7275e-4 -0.0036364-4.158e-4 -0.0010405-1.1826e-4 -0.0020943-2.3842e-4 -0.0031338-3.5667e-4 -0.0021753-2.4986e-4 -0.0041037-4.7112e-4 -0.006278-7.2098e-4 -7.3433e-4 -8.3923e-5 -0.0013876-1.6022e-4 -0.0021219-2.4414e-4 -0.0015526-1.7929e-4 -0.0031118-3.5858e-4 -0.0046644-5.3978e-4 -9.7847e-4 -1.1253e-4 -0.0019379-2.2507e-4 -0.0029163-3.376e-4 -0.0012417-1.4496e-4 -0.0024614-2.861e-4 -0.0037041-4.3106e-4 -0.0010996-1.2779e-4 -0.0020857-2.4223e-4 -0.0031862-3.7193e-4 -0.0012417-1.4496e-4 -0.0023203-2.7084e-4 -0.003562-4.1771e-4 -0.0010996-1.2779e-4 -0.0021782-2.5368e-4 -0.0032787-3.8338e-4 -0.0018625-2.1935e-4 -0.0042181-4.9782e-4 -0.0060806-7.1716e-4 -0.0010386-1.2398e-4 -0.0020685-2.4605e-4 -0.0031071-3.6812e-4 -9.3079e-4 -1.1063e-4 -0.0025606-3.0518e-4 -0.0034914-4.158e-4 -0.0011606-1.3733e-4 -0.0022364-2.6512e-4 -0.003397-4.0436e-4 -0.0012417-1.4687e-4 -0.0021391-2.5558e-4 -0.0033798-4.0436e-4 -0.0011606-1.3733e-4 -0.0022945-2.7466e-4 -0.0034542-4.1389e-4 -0.0012417-1.4877e-4 -0.0017595-2.0981e-4 -0.0029993-3.6049e-4 -0.0022593-2.7084e-4 -0.0044212-5.3215e-4 -0.0066795-8.0681e-4 -9.3079e-4 -1.1253e-4 -0.0019169-2.3079e-4 -0.0028477-3.4332e-4 -0.0012817-1.564e-4 -0.0024433-2.9755e-4 -0.0037251-4.5395e-4 -9.2983e-4 -1.1253e-4 -0.0019922-2.4223e-4 -0.0029221-3.5667e-4 -0.0012817-1.564e-4 -0.0025768-3.1471e-4 -0.0038586-4.7112e-4 -9.2983e-4 -1.1444e-4 -0.0017567-2.1553e-4 -0.0026865-3.2997e-4 -0.0012808-1.5831e-4 -0.0025377-3.1281e-4 -0.0038185-4.6921e-4 -9.2983e-4 -1.1444e-4 -0.0016832-2.079e-4 -0.0026121-3.2234e-4 -0.0024405-3.0136e-4 -0.004878-6.0463e-4 -0.0073175-9.079e-4 -9.2888e-4 -1.1444e-4 -0.001647-2.0409e-4 -0.0025759-3.2043e-4 -0.0012808-1.5831e-4 -0.0025682-3.2043e-4 -0.0038481-4.8065e-4 -9.2983e-4 -1.1444e-4 -0.0017929-2.2316e-4 -0.0027218-3.3951e-4 -0.0012197-1.5259e-4 -0.0026045-3.2616e-4 -0.0038233-4.8065e-4 -9.2888e-4 -1.1635e-4 -0.0018578-2.327e-4 -0.0027866-3.5095e-4 -0.0046329-5.8365e-4 -0.0093489-0.0011806-0.01398-0.00177-6.1893e-4 -8.0109e-5 -0.0015697-2.0027e-4 -0.0021887-2.8038e-4 -0.0013399-1.7166e-4 -0.0027027-3.4523e-4 -0.0040426-5.1689e-4 -6.1893e-4 -8.0109e-5 -0.0019064-2.4414e-4 -0.0025253-3.2425e-4 -0.0014009-1.7929e-4 -0.0027943-3.5858e-4 -0.0041952-5.3978e-4 -6.1893e-4 -8.0109e-5 -0.0011787-1.5259e-4 -0.0017967-2.327e-4 -0.0047503-6.1226e-4 -0.009613-0.0012436-0.01436-0.0018635-9.2793e-4 -1.2207e-4 -0.0017405-2.2697e-4 -0.0026674-3.4904e-4 -0.0013399-1.7548e-4 -0.0026226-3.4332e-4 -0.0039616-5.2071e-4 -9.2793e-4 -1.2016e-4 -0.0013876-1.812e-4 -0.0023146-3.0327e-4 -0.001461-1.9264e-4 -0.002779-3.6621e-4 -0.0042391-5.5885e-4 -6.1798e-4 -8.2016e-5 -0.0012312-1.6212e-4 -0.0018492-2.4414e-4 -0.002799-3.7003e-4 -0.0055695-7.3814e-4 -0.0083675-0.0011101-9.2602e-4 -1.2398e-4 -0.0010614-1.4114e-4 -0.0019884-2.6512e-4 -0.001338-1.7929e-4 -0.0027905-3.7384e-4 -0.0041275-5.5313e-4 -9.2697e-4 -1.2398e-4 -0.0015421-2.0599e-4 -0.0024691-3.2997e-4 -0.001277-1.7166e-4 -0.0026455-3.5477e-4 -0.0039225-5.2643e-4 -9.2602e-4 -1.2398e-4 -0.0018015-2.4223e-4 -0.0027285-3.6812e-4 -0.001276-1.7166e-4 -0.0026054-3.5095e-4 -0.0038815-5.2261e-4 -9.2697e-4 -1.2589e-4 -0.0019703-2.6703e-4 -0.0028963-3.9291e-4 -0.0023098-3.1281e-4 -0.00453-6.1607e-4 -0.0068388-9.3079e-4 -6.1703e-4 -8.3923e-5 -0.001895-2.5749e-4 -0.002512-3.4142e-4 -0.0013981-1.9073e-4 -0.0027876-3.8147e-4 -0.0041847-5.722e-4 -6.1703e-4 -8.5831e-5 -0.0016975-2.327e-4 -0.0023146-3.1853e-4 -0.0013971-1.9073e-4 -0.0027838-3.8147e-4 -0.0041809-5.7411e-4 -6.1703e-4 -8.5831e-5 -0.00144-1.9836e-4 -0.0020571-2.8419e-4 -0.004859-6.6948e-4 -0.0098543-0.0013638-0.014711-0.0020409-6.1607e-4 -8.5831e-5 -0.0011044-1.545e-4 -0.0017214-2.4033e-4 -0.0014572-2.0218e-4 -0.0030394-4.2534e-4 -0.0044956-6.2943e-4 -6.1703e-4 -8.5831e-5 -0.0014048-1.9646e-4 -0.0020208-2.8229e-4 -0.0013962-1.9646e-4 -0.0029507-4.158e-4 -0.0043468-6.1226e-4 -3.0804e-4 -4.3869e-5 -0.0012331-1.7357e-4 -0.0015411-2.1744e-4 -0.0032768-4.6158e-4 -0.0066547-9.4032e-4 -0.0099306-0.0014057-3.0804e-4 -4.3869e-5 -2.2697e-4 -3.2425e-5 -5.3501e-4 -7.6294e-5 -0.0015774-2.2316e-4 -0.003109-4.425e-4 -0.0046854-6.6757e-4 -3.0804e-4 -4.3869e-5 -0.0013885-1.9836e-4 -0.0016966-2.4223e-4 -0.0015163-2.1553e-4 -0.0030012-4.2915e-4 -0.0045166-6.4659e-4 -6.1607e-4 -8.7738e-5 -0.0013618-1.9455e-4 -0.001977-2.8419e-4 -0.0049114-7.0381e-4 -0.0098791-0.0014229-0.014788-0.0021343-6.1512e-4 -8.9645e-5 -0.0011091-1.6212e-4 -0.0017252-2.4986e-4 -0.0013933-2.0409e-4 -0.0027971-4.0817e-4 -0.0041914-6.1226e-4 -6.1512e-4 -8.9645e-5 -0.0016613-2.4223e-4 -0.0022774-3.3188e-4 -0.0014534-2.1172e-4 -0.0029554-4.3106e-4 -0.0044088-6.4468e-4 -6.1512e-4 -8.9645e-5 -9.4032e-4 -1.3733e-4 -0.0015564-2.2888e-4 -0.0049658-7.2861e-4 -0.0099173-0.0014591-0.014881-0.0021954-6.1512e-4 -9.1553e-5 -0.0013475-2.0027e-4 -0.0019627-2.9182e-4 -0.0014524-2.1553e-4 -0.0028248-4.1962e-4 -0.0042772-6.3705e-4 -6.1512e-4 -9.1553e-5 -0.0014296-2.1172e-4 -0.0020437-3.0327e-4 -0.0015135-2.2697e-4 -0.0029707-4.4441e-4 -0.0044832-6.7139e-4 -3.0804e-4 -4.5776e-5 -0.0010853-1.6212e-4 -0.0013924-2.079e-4 -0.0033884-5.0926e-4 -0.0067987-0.0010204-0.010186-0.0015335-3.0708e-4 -4.5776e-5 -8.5831e-6 0-3.1567e-4 -4.7684e-5 -0.0015125-2.2697e-4 -0.0029898-4.5204e-4 -0.0045023-6.8092e-4 -6.1417e-4 -9.346e-5 -0.0013447-2.0409e-4 -0.0019588-2.9755e-4 -0.0014515-2.1935e-4 -0.003026-4.5967e-4 -0.0044775-6.7902e-4 -3.0708e-4 -4.7684e-5 -0.0013008-1.9836e-4 -0.0016079-2.4605e-4 -0.0051394-7.8392e-4 -0.010163-0.0015526-0.015301-0.0023441-3.0613e-4 -4.7684e-5 -0.001071-1.6594e-4 -0.0013781-2.1362e-4 -0.0014505-2.2316e-4 -0.0028057-4.3297e-4 -0.0042562-6.5613e-4 -9.203e-4 -1.4305e-4 -0.0014238-2.2125e-4 -0.0023451-3.643e-4 -0.0013285-2.0599e-4 -0.0027285-4.2343e-4 -0.0040569-6.2943e-4 -9.203e-4 -1.4305e-4 -0.001483-2.3079e-4 -0.0024042-3.7384e-4 -0.0013885-2.1553e-4 -0.0026855-4.1771e-4 -0.0040751-6.3515e-4 -6.1321e-4 -9.5367e-5 -0.0011845-1.8501e-4 -0.0017977-2.8038e-4 -0.0025358-3.9673e-4 -0.005127-8.0299e-4 -0.0076628-0.0012016-9.203e-4 -1.4496e-4 -0.001873-2.9373e-4 -0.0027933-4.3869e-4 -0.0013275-2.0981e-4 -0.0026369-4.158e-4 -0.0039644-6.2561e-4 -6.1321e-4 -9.7275e-5 -0.0018206-2.8801e-4 -0.0024338-3.8528e-4 -0.0013285-2.0981e-4 -0.0027351-4.3297e-4 -0.0040627-6.4278e-4 -6.1321e-4 -9.7275e-5 -0.0015383-2.4414e-4 -0.0021515-3.4142e-4 -0.0028963-4.5967e-4 -0.0058556-9.3079e-4 -0.0087509-0.0013943-3.0613e-4 -4.9591e-5 -9.6226e-4 -1.545e-4 -0.0012693-2.0218e-4 -0.0012665-2.0218e-4 -0.0026035-4.1771e-4 -0.00387-6.1989e-4 -9.1934e-4 -1.4877e-4 -0.0017529-2.8229e-4 -0.0026722-4.2915e-4 -0.0012665-2.0409e-4 -0.002552-4.1008e-4 -0.0038176-6.1417e-4 -9.1934e-4 -1.4877e-4 -0.0018816-3.0327e-4 -0.0028-4.5204e-4 -0.0012665-2.0409e-4 -0.0024767-3.9864e-4 -0.0037422-6.0463e-4 -9.1934e-4 -1.4877e-4 -0.0014429-2.327e-4 -0.0023613-3.8147e-4 -0.0025921-4.2152e-4 -0.0051193-8.316e-4 -0.0077105-0.0012531-9.1839e-4 -1.5068e-4 -0.0012751-2.079e-4 -0.0021935-3.5667e-4 -0.0012655-2.079e-4 -0.0025597-4.1962e-4 -0.0038252-6.2561e-4 -9.1839e-4 -1.5068e-4 -0.0017862-2.9182e-4 -0.0027046-4.425e-4 -0.0012646-2.079e-4 -0.0026388-4.3297e-4 -0.0039034-6.4087e-4 -9.1839e-4 -1.5068e-4 -0.0015116-2.4796e-4 -0.002429-4.0054e-4 -0.0013857-2.2697e-4 -0.0027494-4.5204e-4 -0.0041342-6.7902e-4 -3.0613e-4 -5.1498e-5 -2.7943e-4 -4.7684e-5 -5.8556e-4 -9.7275e-5 -0.0029507-4.8828e-4 -0.0059357-9.8228e-4 -0.0088854-0.0014725-9.1743e-4 -1.5068e-4 -0.0018282-3.0327e-4 -0.0027456-4.5586e-4 -0.0012646-2.0981e-4 -0.0024347-4.0436e-4 -0.0036983-6.1607e-4 -9.1743e-4 -1.5259e-4 -0.0018635-3.109e-4 -0.00278-4.6349e-4 -0.0012646-2.1172e-4 -0.0024824-4.1389e-4 -0.003746-6.2561e-4 -9.1743e-4 -1.545e-4 -0.002039-3.4332e-4 -0.0029564-4.9591e-4 -0.0014439-2.4223e-4 -0.0027218-4.5776e-4 -0.0041656-7e-4 -0.0018339-3.0899e-4 -0.0034323-5.7793e-4 -0.0052652-8.8692e-4 -0.0011435-1.9455e-4 -0.0022783-3.8528e-4 -0.0034208-5.7983e-4 -9.1648e-4 -1.545e-4 -0.0022125-3.7384e-4 -0.003129-5.3024e-4 -0.0012035-2.0218e-4 -0.0023203-3.9291e-4 -0.0035229-5.97e-4 -9.1648e-4 -1.564e-4 -0.0021362-3.643e-4 -0.0030527-5.188e-4 -0.0012026-2.0599e-4 -0.0023108-3.9482e-4 -0.0035133-5.9891e-4 -0.0012217-2.0981e-4 -0.0024824-4.2534e-4 -0.0037041-6.3324e-4 -0.001442-2.4796e-4 -0.0028248-4.8447e-4 -0.0042667-7.3051e-4 -0.0015268-2.6321e-4 -0.0029583-5.0926e-4 -0.0044842-7.7057e-4 -0.0011415-1.9646e-4 -0.0022345-3.8528e-4 -0.003376-5.8174e-4 -9.1553e-4 -1.5831e-4 -0.0023451-4.0436e-4 -0.0032606-5.6267e-4 -0.0010815-1.8692e-4 -0.0022478-3.891e-4 -0.0033293-5.7602e-4 -0.0012197-2.1172e-4 -0.0021915-3.7956e-4 -0.0034122-5.9128e-4 -0.0010214-1.7738e-4 -0.002079-3.6049e-4 -0.0030994-5.3787e-4 -0.0015249-2.6512e-4 -0.0035362-6.1607e-4 -0.0050621-8.831e-4 -0.0012007-2.079e-4 -0.0025377-4.425e-4 -0.0037384-6.5231e-4 -0.0012197-2.1362e-4 -0.0026131-4.5586e-4 -0.0038328-6.7139e-4 -0.0010796-1.8883e-4 -0.002224-3.891e-4 -0.0033045-5.7983e-4 -0.0012197-2.1362e-4 -0.0021601-3.7956e-4 -0.0033798-5.9319e-4 -0.0010195-1.7929e-4 -0.0020466-3.6049e-4 -0.003067-5.3978e-4 -0.001524-2.6894e-4 -0.0024729-4.3678e-4 -0.0039968-7.0572e-4 -8.9931e-4 -1.6022e-4 -0.0017633-3.1281e-4 -0.0026627-4.7112e-4 -0.0018291-3.2425e-4 -0.0042925-7.6103e-4 -0.0061207-0.0010872-9.594e-4 -1.6975e-4 -0.0020189-3.5858e-4 -0.0029783-5.3024e-4 -9.1362e-4 -1.6212e-4 -0.0026064-4.6349e-4 -0.00352-6.2561e-4 -0.0010796-1.9264e-4 -0.0021877-3.9101e-4 -0.0032673-5.8556e-4 -0.0012178-2.1744e-4 -0.0023308-4.158e-4 -0.0035486-6.3515e-4 -9.594e-4 -1.7166e-4 -0.0020161-3.6049e-4 -0.0029745-5.3215e-4 -0.001523-2.7466e-4 -0.0026636-4.7874e-4 -0.0041857-7.534e-4 -8.3923e-4 -1.5068e-4 -0.0017071-3.0708e-4 -0.0025463-4.5776e-4 -0.0018263-3.2997e-4 -0.0042133-7.6103e-4 -0.0060387-0.001091-9.594e-4 -1.7357e-4 -0.0017881-3.2425e-4 -0.0027466-4.9782e-4 -0.0012169-2.2125e-4 -0.0026951-4.8828e-4 -0.0039129-7.0953e-4 -0.0010176-1.8501e-4 -0.0019255-3.5095e-4 -0.002943-5.3596e-4 -0.0012169-2.2125e-4 -0.0026836-4.8828e-4 -0.0038996-7.1144e-4 -8.3923e-4 -1.5259e-4 -0.0018044-3.2806e-4 -0.0026426-4.8256e-4 -0.0018253-3.3379e-4 -0.0033674-6.1607e-4 -0.0051918-9.4986e-4 -0.0010176-1.8692e-4 -0.0019217-3.5286e-4 -0.0029392-5.3978e-4 -0.0015202-2.7847e-4 -0.0032845-6.0272e-4 -0.0048046-8.831e-4 -9.5749e-4 -1.7548e-4 -0.0017986-3.3188e-4 -0.0027561-5.0926e-4 -0.0012159-2.2316e-4 -0.0025806-4.7493e-4 -0.0037966-7e-4 -9.5654e-4 -1.7738e-4 -0.0019627-3.624e-4 -0.0029192-5.3978e-4 -0.0015202-2.8229e-4 -0.0027046-5.0163e-4 -0.0042238-7.8392e-4 -7.1812e-4 -1.3351e-4 -0.0016031-2.9755e-4 -0.0023203-4.3106e-4 -0.0021276-3.9673e-4 -0.004324-8.049e-4 -0.0064507-0.0012016-5.3787e-4 -1.0109e-4 -0.0010653-2.0027e-4 -0.0016031-3.0136e-4 -0.0018225-3.3951e-4 -0.0032444-6.0463e-4 -0.0050659-9.4795e-4 -7.7724e-4 -1.4496e-4 -0.0015526-2.8992e-4 -0.0023298-4.3678e-4 -0.001214-2.2697e-4 -0.0031309-5.8746e-4 -0.0043449-8.1635e-4 -8.3733e-4 -1.564e-4 -0.0016909-3.1853e-4 -0.0025272-4.7493e-4 -0.0018225-3.4332e-4 -0.0033474-6.3133e-4 -0.0051689-9.7656e-4 -4.1771e-4 -7.8201e-5 -9.1934e-4 -1.7357e-4 -0.0013371-2.5177e-4 -0.0021248-4.0245e-4 -0.0043802-8.297e-4 -0.0065041-0.0012341-7.1716e-4 -1.3542e-4 -0.0015059-2.861e-4 -0.002223-4.2152e-4 -0.0015163-2.8992e-4 -0.0029669-5.6458e-4 -0.0044832-8.5449e-4 -8.3637e-4 -1.5831e-4 -0.0016737-3.1853e-4 -0.0025101-4.7874e-4 -0.0012131-2.3079e-4 -0.0030499-5.8365e-4 -0.0042629-8.1444e-4 -7.7629e-4 -1.4877e-4 -0.0016432-3.1471e-4 -0.0024195-4.6349e-4 -0.0018196-3.4904e-4 -0.0039473-7.5722e-4 -0.0057659-0.0011082-3.5858e-4 -6.8665e-5 -6.3324e-4 -1.2016e-4 -9.9087e-4 -1.9073e-4 -0.0021229-4.0817e-4 -0.0042267-8.1253e-4 -0.0063486-0.0012226-7.7534e-4 -1.5068e-4 -0.0013962-2.7084e-4 -0.0021725-4.2152e-4 -0.0015154-2.9182e-4 -0.0030746-5.9319e-4 -0.00459-8.8882e-4 -7.7534e-4 -1.4877e-4 -0.0014486-2.8038e-4 -0.002224-4.3106e-4 -0.0015144-2.9373e-4 -0.0032845-6.3705e-4 -0.0047989-9.3269e-4 -7.1621e-4 -1.3924e-4 -0.0012674-2.4605e-4 -0.0019836-3.8528e-4 -0.00212-4.1389e-4 -0.0044947-8.7738e-4 -0.0066156-0.0012932-1.7834e-4 -3.4332e-5 -4.5967e-4 -8.9645e-5 -6.3896e-4 -1.2398e-4 -0.0018167-3.5667e-4 -0.0042067-8.2588e-4 -0.0060234-0.0011826-5.9605e-4 -1.1635e-4 -0.0012417-2.4414e-4 -0.0018377-3.6049e-4 -0.0018167-3.5667e-4 -0.0032988-6.485e-4 -0.0051146-0.0010071-5.9605e-4 -1.1826e-4 -0.0011988-2.3651e-4 -0.0017948-3.5477e-4 -0.0018158-3.5858e-4 -0.0036011-7.0953e-4 -0.0054169-0.00107-4.7588e-4 -9.346e-5 -8.7547e-4 -1.7357e-4 -0.0013523-2.6703e-4 -0.0024204-4.8065e-4 -0.0043278-8.5831e-4 -0.0067482-0.0013409-3.5667e-4 -7.0572e-5 -6.628e-4 -1.3161e-4 -0.0010204-2.0218e-4 -0.0018148-3.624e-4 -0.0039062-7.782e-4 -0.0057211-0.0011406-5.9509e-4 -1.1826e-4 -0.0011797-2.3651e-4 -0.0017757-3.5477e-4 -0.0018148-3.624e-4 -0.0033321-6.6757e-4 -0.005147-0.00103-5.3501e-4 -1.0872e-4 -0.0011406-2.2888e-4 -0.0016766-3.3569e-4 -0.0021172-4.2534e-4 -0.004324-8.6975e-4 -0.0064402-0.0012951-1.1921e-4 -2.2888e-5 -1.4877e-4 -3.0518e-5 -2.6798e-4 -5.3406e-5 -0.0024185-4.8828e-4 -0.0044975-9.079e-4 -0.006916-0.0013962-3.5667e-4 -7.2479e-5 -7.3528e-4 -1.4877e-4 -0.001092-2.2125e-4 -0.0018139-3.6621e-4 -0.0037813-7.6485e-4 -0.0055943-0.001133-5.9509e-4 -1.2016e-4 -0.0011377-2.3079e-4 -0.0017319-3.5095e-4 -0.0018129-3.6812e-4 -0.0035906-7.3051e-4 -0.0054035-0.0010986-4.7588e-4 -9.7275e-5 -9.2316e-4 -1.8883e-4 -0.001399-2.861e-4 -0.0024166-4.921e-4 -0.0043945-8.9645e-4 -0.0068111-0.0013905-5.9128e-5 -1.1444e-5 -8.4877e-5 -1.7166e-5 -1.44e-4 -3.0518e-5 -0.0021143-4.3106e-4 -0.0043402-8.8882e-4 -0.0064535-0.0013218-5.9414e-4 -1.2207e-4 -0.0012636-2.6131e-4 -0.0018578-3.8338e-4 -0.001812-3.7193e-4 -0.0032492-6.6757e-4 -0.0050602-0.0010414-5.9414e-4 -1.2207e-4 -0.001133-2.327e-4 -0.0017271-3.5477e-4 -0.0021124-4.3678e-4 -0.0043917-9.079e-4 -0.0065041-0.0013447l-4.7684e-6 -1.9073e-6c-0.0024137-4.9973e-4 -0.0047817-9.8991e-4 -0.0071945-0.0014915-1.1921e-4 -2.4796e-5 -1.0014e-4 -2.0981e-5 -2.1839e-4 -4.5776e-5 -0.0021114-4.3869e-4 -0.0044794-9.3269e-4 -0.0065908-0.0013733-3.5572e-4 -7.4387e-5 -7.9823e-4 -1.6594e-4 -0.0011549-2.4033e-4 -0.0018091-3.7766e-4 -0.004179-8.7357e-4 -0.0059872-0.0012531-2.9659e-4 -6.1035e-5 -5.8651e-4 -1.2207e-4 -8.831e-4 -1.8501e-4 -0.0048237-0.0010109-0.0091639-0.0019226-0.013985-0.0029411-2.3651e-4 -4.9591e-5 -3.8433e-4 -8.2016e-5 -6.218e-4 -1.3161e-4 -0.0021086-4.4441e-4 -0.0042744-9.0408e-4 -0.0063829-0.0013504-2.3651e-4 -4.9591e-5 -5.4646e-4 -1.1635e-4 -7.8392e-4 -1.6594e-4 -0.0024099-5.1117e-4 -0.0042944-9.1171e-4 -0.0067034-0.0014248-6.0081e-5 -1.1444e-5 -1.3447e-4 -2.6703e-5 -1.936e-4 -4.0054e-5 -0.004818-0.0010262-0.00947-0.0020199-0.014285-0.0030518-1.1921e-4 -2.4796e-5 -1.7929e-4 -3.8147e-5 -2.985e-4 -6.2943e-5 -0.0024071-5.1689e-4 -0.00455-9.7847e-4 -0.0069571-0.0014954-5.9128e-5 -1.3351e-5 -7.0572e-5 -1.5259e-5 -1.297e-4 -2.861e-5 -0.37037-0.079723-0.73282-0.18108-1.0858-0.30261l0.32558-0.94552zm-4.2111-3.1868c0.51346 0.73706 1.1371 1.3859 1.8536 1.9285l-0.60373 0.79718c-0.79797-0.60432-1.4975-1.3318-2.0704-2.1541l0.82052-0.57161zm-2.5174-5.0794 0.99973 0.02345c-0.0015907 0.067691-0.0023899 0.13558-0.0023899 0.20365 0 0.83361 0.12017 1.6568 0.35717 2.4468l-0.95782 0.28736c-0.039558-0.13186-0.076336-0.26494-0.11025-0.39914l-6.8665e-5 -2.6894e-4c-0.0016994-0.0067234-0.0034065-0.013512-0.0050907-0.020241-7.4387e-5 -2.9755e-4 -1.2589e-4 -5.0545e-4 -2.0027e-4 -8.0299e-4 -0.0011997-0.0047913-0.0023708-0.0094852-0.0035629-0.014279-7.2479e-5 -2.9659e-4 -2.079e-4 -8.3637e-4 -2.8038e-4 -0.0011339-3.624e-4 -0.0014553-7.4768e-4 -0.0030069-0.0011082-0.0044613-1.4687e-4 -5.9509e-4 -1.3733e-4 -5.5313e-4 -2.8419e-4 -0.0011473-6.9427e-4 -0.0028019-0.0013962-0.0056372-0.0020866-0.00844-7.4387e-5 -2.9755e-4 -2.4223e-4 -9.7561e-4 -3.1471e-4 -0.0012732-3.3379e-4 -0.0013485-6.3896e-4 -0.0025864-9.6893e-4 -0.0039349-1.4687e-4 -5.9509e-4 -3.624e-4 -0.0014715-5.0926e-4 -0.0020666-3.3188e-4 -0.0013475-6.5613e-4 -0.0026693-9.8801e-4 -0.0040169-7.2479e-5 -2.9755e-4 -2.0409e-4 -8.3447e-4 -2.7657e-4 -0.001132-6.3515e-4 -0.0025883-0.0012569-0.0051193-0.0018883-0.0077095-1.4687e-4 -5.9509e-4 -4.0817e-4 -0.0016613-5.5313e-4 -0.0022564-3.0327e-4 -0.0012417-6.0272e-4 -0.0024748-9.0599e-4 -0.0037155-2.1744e-4 -8.9359e-4 -4.5967e-4 -0.0018826-6.7711e-4 -0.0027771-2.4986e-4 -0.0010242-5.0163e-4 -0.0020599-7.515e-4 -0.0030861-4.3297e-4 -0.0017872-9.3269e-4 -0.0038433-0.0013657-0.0056314-2.0981e-4 -8.6308e-4 -4.158e-4 -0.0017138-6.2561e-4 -0.0025778-2.8801e-4 -0.0011921-7e-4 -0.0028896-9.8801e-4 -0.0040817-1.9455e-4 -8.1062e-4 -3.8719e-4 -0.0016079-5.8365e-4 -0.0024176-4.3106e-4 -0.0017881-7.1907e-4 -0.0029774-0.0011501-0.0047665-1.812e-4 -7.5626e-4 -3.5858e-4 -0.0014896-5.3978e-4 -0.0022459-4.3106e-4 -0.0017891-8.5449e-4 -0.0035534-0.0012836-0.0053425-1.6975e-4 -7.019e-4 -3.3569e-4 -0.0013981-5.0354e-4 -0.0021009-4.2915e-4 -0.00179-6.7711e-4 -0.00282-0.0011044-0.0046091-1.6785e-4 -7.0381e-4 -3.1662e-4 -0.0013218-4.8447e-4 -0.0020256-4.9973e-4 -0.0020885-9.7847e-4 -0.0040989-0.0014763-0.0061874-1.1635e-4 -4.8637e-4 -2.0981e-4 -8.812e-4 -3.2616e-4 -0.0013676-4.2725e-4 -0.001791-7.4768e-4 -0.0031414-0.001173-0.0049324-1.7929e-4 -7.5722e-4 -3.4714e-4 -0.001461-5.2643e-4 -0.0022182-4.2534e-4 -0.001791-7.8201e-4 -0.0032988-0.0012074-0.0050907-1.0109e-4 -4.3297e-4 -2.079e-4 -8.7547e-4 -3.0899e-4 -0.0013084-4.9591e-4 -0.0020905-9.9564e-4 -0.0042133-0.0014896-0.0063038-1.4114e-4 -5.9509e-4 -2.6703e-4 -0.0011358-4.0817e-4 -0.0017319-4.2152e-4 -0.001792-7.6103e-4 -0.0032291-0.0011826-0.005022-1.2589e-4 -5.4073e-4 -2.4605e-4 -0.001049-3.7193e-4 -0.0015898-4.921e-4 -0.0020914-0.0010262-0.0043697-0.0015163-0.0064621-5.1498e-5 -2.1648e-4 -9.5367e-5 -4.0245e-4 -1.4496e-4 -6.1893e-4 -4.1962e-4 -0.0017939-9.6321e-4 -0.0041189-0.0013828-0.0059128-1.3733e-4 -5.9605e-4 -2.7084e-4 -0.0011635-4.1008e-4 -0.0017605-4.1771e-4 -0.0017929-8.1062e-4 -0.0034771-0.0012283-0.0052719-8.7738e-5 -3.7861e-4 -1.9455e-4 -8.4209e-4 -2.8419e-4 -0.0012207-5.5504e-4 -0.0023937-9.8038e-4 -0.0042267-0.0015354-0.0066204-6.2943e-5 -2.7084e-4 -1.3733e-4 -5.97e-4 -2.0027e-4 -8.6784e-4 -4.158e-4 -0.0017948-8.9836e-4 -0.0038805-0.0013142-0.0056763-1.2398e-4 -5.4169e-4 -2.5368e-4 -0.0010986-3.7766e-4 -0.0016403-0.0010357-0.0044889-0.001997-0.008667-0.003027-0.013159-8.7738e-5 -3.7956e-4 -1.7738e-4 -7.7248e-4 -2.6321e-4 -0.001152-4.8065e-4 -0.0020962-9.0218e-4 -0.0039368-0.0013809-0.0060329-4.9591e-5 -2.1744e-4 -1.049e-4 -4.5967e-4 -1.545e-4 -6.7711e-4 -0.0010948-0.0047922-0.0021133-0.0092678-0.0032005-0.014063-1.1444e-5 -5.4359e-5 -2.2888e-5 -1.0586e-4 -3.624e-5 -1.6022e-4 -0.0016308-0.0071926-0.003212-0.014208-0.0048275-0.021406-1.1444e-5 -5.5313e-5 -2.2888e-5 -1.0967e-4 -3.624e-5 -1.6403e-4 -0.10762-0.4799-0.17891-0.97322-0.21087-1.4775-7.6294e-6 -1.1444e-4 -1.9073e-5 -2.8133e-4 -2.6703e-5 -3.9577e-4 -3.1853e-4 -0.005043-6.218e-4 -0.0098925-9.346e-4 -0.014937-1.9073e-6 -5.722e-5 0-9.5367e-6 -3.8147e-6 -6.6757e-5 -4.673e-4 -0.0075674-9.2125e-4 -0.015074-0.0013714-0.022646 0 0-3.8147e-6 -4.9591e-5 -3.8147e-6 -4.9591e-5 -4.5013e-4 -0.0075722-8.6594e-4 -0.014728-0.0012989-0.022305-1.3351e-5 -2.2888e-4 -2.4796e-5 -4.4727e-4 -3.8147e-5 -6.7616e-4 -7.2098e-4 -0.012629-0.0013866-0.024719-0.002058-0.037361-5.722e-6 -1.1444e-4 -1.9073e-5 -3.7575e-4 -2.4796e-5 -4.9019e-4 -2.6894e-4 -0.0050573-5.1498e-4 -0.0097561-7.7438e-4 -0.014815-5.722e-6 -1.1444e-4 -1.5259e-5 -2.7275e-4 -2.0981e-5 -3.8719e-4 -1.297e-4 -0.0025291-2.2125e-4 -0.0043306-3.4904e-4 -0.0068598-1.3351e-5 -2.2984e-4 -2.6703e-5 -5.1689e-4 -3.8147e-5 -7.4673e-4 -2.5749e-4 -0.0050602-4.7684e-4 -0.0094481-7.2479e-4 -0.01451-1.3351e-5 -2.861e-4 -3.0518e-5 -6.094e-4 -4.3869e-5 -8.955e-4 -2.327e-4 -0.0047464-4.7874e-4 -0.0098419-7.0381e-4 -0.014589-5.722e-6 -1.1539e-4 -1.1444e-5 -2.4509e-4 -1.7166e-5 -3.5954e-4 -1.2016e-4 -0.002532-2.0981e-4 -0.0044346-3.2806e-4 -0.0069675-1.1444e-5 -2.2984e-4 -2.0981e-5 -4.4632e-4 -3.2425e-5 -6.7616e-4 -2.3651e-4 -0.005065-4.406e-4 -0.0095177-6.6948e-4 -0.014585-1.3351e-5 -2.8706e-4 -2.4796e-5 -5.455e-4 -3.8147e-5 -8.3256e-4 -8.5831e-5 -0.0019007-2.0409e-4 -0.0045576-2.8801e-4 -0.0064573-1.5259e-5 -3.4428e-4 -2.861e-5 -6.1131e-4 -4.3869e-5 -9.5558e-4 -2.0981e-4 -0.0047512-4.2152e-4 -0.0096016-6.2561e-4 -0.014355-1.3351e-5 -3.4523e-4 -3.0518e-5 -7.1621e-4 -4.3869e-5 -0.0010605-2.0409e-4 -0.0047531-4.1199e-4 -0.0097342-6.0844e-4 -0.014489-9.5367e-6 -2.2984e-4 -1.5259e-5 -3.9101e-4 -2.4796e-5 -6.2084e-4 -9.1553e-5 -0.0022192-1.812e-4 -0.0043955-2.7084e-4 -0.0066147-1.3351e-5 -3.4523e-4 -2.4796e-5 -5.9795e-4 -3.8147e-5 -9.4223e-4 -2.0409e-4 -0.0050735-3.7575e-4 -0.0093908-5.722e-4 -0.014466-1.1444e-5 -2.8801e-4 -2.4796e-5 -6.5136e-4 -3.624e-5 -9.3842e-4 -7.4387e-5 -0.0019035-1.7548e-4 -0.0045624-2.4796e-4 -0.0064659-1.1444e-5 -2.8706e-4 -2.2888e-5 -5.5885e-4 -3.2425e-5 -8.4686e-4 -1.9264e-4 -0.0050764-3.5667e-4 -0.0094843-5.4169e-4 -0.014563-1.1444e-5 -2.8801e-4 -2.0981e-5 -5.2929e-4 -3.0518e-5 -8.173e-4 -1.8501e-4 -0.0050783-3.4142e-4 -0.0094538-5.188e-4 -0.014534-9.5367e-6 -2.8801e-4 -1.9073e-5 -5.5027e-4 -2.861e-5 -8.3828e-4 -6.6757e-5 -0.0019054-1.6022e-4 -0.0046616-2.2507e-4 -0.006568-1.1444e-5 -2.8706e-4 -1.9073e-5 -5.5981e-4 -3.0518e-5 -8.4782e-4 -1.6212e-4 -0.0047636-3.2234e-4 -0.0095987-4.7684e-4 -0.014365-1.3351e-5 -4.0245e-4 -2.6703e-5 -8.3256e-4 -4.0054e-5 -0.001235-6.1035e-5 -0.0019064-1.3924e-4 -0.0042896-1.9836e-4 -0.006196-1.1444e-5 -3.4618e-4 -2.2888e-5 -7.0477e-4 -3.4332e-5 -0.0010509-8.0109e-5 -0.0025415-1.4305e-4 -0.0045595-2.2125e-4 -0.007102-9.5367e-6 -2.8801e-4 -1.7166e-5 -5.331e-4 -2.4796e-5 -8.2111e-4 -5.9128e-5 -0.0019073-1.3161e-4 -0.0042849-1.8883e-4 -0.0061922-1.7166e-5 -5.1785e-4 -3.0518e-5 -9.9182e-4 -4.5776e-5 -0.0015106-6.6757e-5 -0.0022249-1.3542e-4 -0.0045414-2.0218e-4 -0.0067673-1.9073e-6 -5.722e-5 -3.8147e-6 -1.6975e-4 -5.722e-6 -2.2697e-4 -6.485e-5 -0.0022259-1.4114e-4 -0.0048552-2.0409e-4 -0.007082-1.3351e-5 -4.6062e-4 -2.6703e-5 -9.0981e-4 -4.0054e-5 -0.0013714-5.3406e-5 -0.0019083-1.1635e-4 -0.0041399-1.6975e-4 -0.0060482-1.1444e-5 -4.034e-4 -1.9073e-5 -7e-4 -3.0518e-5 -0.0011034-7.0572e-5 -0.0025444-1.2779e-4 -0.0046606-1.9646e-4 -0.007206-3.8147e-6 -1.1444e-4 -3.8147e-6 -1.2779e-4 -7.6294e-6 -2.4223e-4 -5.9128e-5 -0.0022278-1.1635e-4 -0.0043936-1.7548e-4 -0.0066214-1.5259e-5 -5.7697e-4 -3.2425e-5 -0.0012236-4.5776e-5 -0.0017996-4.9591e-5 -0.0019102-9.7275e-5 -0.0037489-1.4687e-4 -0.0056581-1.1444e-5 -4.6158e-4 -2.0981e-5 -8.7357e-4 -3.4332e-5 -0.0013351-6.2943e-5 -0.0025463-1.0872e-4 -0.0043201-1.6975e-4 -0.0068674-1.3351e-5 -5.188e-4 -2.2888e-5 -8.8501e-4 -3.4332e-5 -0.0014038-4.7684e-5 -0.0019102-9.5367e-5 -0.003871-1.4114e-4 -0.0057812-1.1444e-5 -5.1975e-4 -2.4796e-5 -0.0010557-3.624e-5 -0.0015745-1.049e-4 -0.0044584-2.2316e-4 -0.0095348-3.2234e-4 -0.013994-1.1444e-5 -5.188e-4 -2.0981e-5 -9.8991e-4 -3.2425e-5 -0.0015097-4.1962e-5 -0.0019112-8.7738e-5 -0.0039721-1.2779e-4 -0.0058842-9.5367e-6 -4.034e-4 -1.9073e-5 -9.0027e-4 -2.861e-5 -0.0013046-5.5313e-5 -0.0025482-9.5367e-5 -0.0044842-1.4687e-4 -0.0070333-5.722e-6 -2.8801e-4 -1.1444e-5 -5.3024e-4 -1.7166e-5 -8.1921e-4 -4.0054e-5 -0.0019121-8.3923e-5 -0.0041409-1.2207e-4 -0.006053-1.3351e-5 -6.3515e-4 -2.4796e-5 -0.0012474-3.8147e-5 -0.0018826-3.624e-5 -0.0019121-7.6294e-5 -0.0039654-1.1253e-4 -0.0058784-9.5367e-6 -4.034e-4 -1.3351e-5 -6.8283e-4 -2.0981e-5 -0.0010872-4.9591e-5 -0.0025501-8.3923e-5 -0.0044518-1.3161e-4 -0.0070019-7.6294e-6 -4.0436e-4 -1.5259e-5 -8.6689e-4 -2.2888e-5 -0.0012703-3.4332e-5 -0.001914-6.8665e-5 -0.0038128-1.0109e-4 -0.0057259-1.1444e-5 -6.361e-4 -2.0981e-5 -0.0011511-3.2425e-5 -0.0017862-3.8147e-5 -0.0022326-7.8201e-5 -0.0046349-1.1635e-4 -0.0068674-1.9073e-6 -1.1539e-4 -3.8147e-6 -2.4223e-4 -5.722e-6 -3.5763e-4 -3.624e-5 -0.0022335-7.0572e-5 -0.0043402-1.0681e-4 -0.0065727-9.5367e-6 -6.361e-4 -1.9073e-5 -0.0012236-2.861e-5 -0.0018587-3.0518e-5 -0.001914-5.5313e-5 -0.0035334-8.3923e-5 -0.0054483-9.5367e-6 -5.7793e-4 -1.7166e-5 -0.0010452-2.4796e-5 -0.0016232-3.4332e-5 -0.0022335-6.8665e-5 -0.0045433-9.9182e-5 -0.0067778-7.6294e-6 -4.6253e-4 -1.5259e-5 -0.0010414-2.0981e-5 -0.0015039-2.861e-5 -0.001915-5.1498e-5 -0.0035801-7.6294e-5 -0.0054951-9.5367e-6 -6.9427e-4 -1.9073e-5 -0.001339-2.861e-5 -0.0020332-2.4796e-5 -0.001915-4.7684e-5 -0.0036097-7.2479e-5 -0.0055256-5.722e-6 -4.6253e-4 -1.1444e-5 -9.8991e-4 -1.7166e-5 -0.0014524-2.861e-5 -0.0022345-5.5313e-5 -0.0044298-8.2016e-5 -0.0066652-7.6294e-6 -6.361e-4 -1.5259e-5 -0.0012856-2.2888e-5 -0.0019217-2.2888e-5 -0.0019159-3.8147e-5 -0.0032444-5.9128e-5 -0.0051613-7.6294e-6 -6.9427e-4 -1.5259e-5 -0.0013933-2.2888e-5 -0.0020876-2.4796e-5 -0.0022364-4.9591e-5 -0.0044651-7.2479e-5 -0.0067015-3.8147e-6 -2.8896e-4 -5.722e-6 -6.5327e-4 -9.5367e-6 -9.4223e-4 -1.9073e-5 -0.0019169-4.0054e-5 -0.0039463-5.722e-5 -0.0058641-7.6294e-6 -7.5245e-4 -1.3351e-5 -0.0014219-2.0981e-5 -0.0021744-1.9073e-5 -0.0019169-3.2425e-5 -0.0034294-4.9591e-5 -0.0053473-3.8147e-6 -5.7888e-4 -9.5367e-6 -0.0010347-1.3351e-5 -0.0016136-1.9073e-5 -0.0022364-3.8147e-5 -0.0044794-5.5313e-5 -0.0067167-5.722e-6 -6.3705e-4 -9.5367e-6 -0.0011654-1.5259e-5 -0.0018024-1.5259e-5 -0.0019178-2.4796e-5 -0.0032787-3.8147e-5 -0.0051975-5.722e-6 -6.9427e-4 -1.1444e-5 -0.00142-1.5259e-5 -0.0021152-1.3351e-5 -0.0019188-2.6703e-5 -0.0037289-3.8147e-5 -0.0056467-3.8147e-6 -5.2166e-4 -5.722e-6 -9.1743e-4 -9.5367e-6 -0.0014391-1.5259e-5 -0.0022383-2.6703e-5 -0.00424-3.8147e-5 -0.0064783-3.8147e-6 -7.534e-4 -7.6294e-6 -0.0014477-1.3351e-5 -0.0022011-9.5367e-6 -0.0019188-1.5259e-5 -0.0031633-2.4796e-5 -0.0050831-3.8147e-6 -5.7983e-4 -7.6294e-6 -0.0012579-9.5367e-6 -0.0018377-9.5367e-6 -0.0022392-2.0981e-5 -0.00459-3.0518e-5 -0.0068293 0-4.0627e-4 -1.9073e-6 -7.9918e-4 -3.8147e-6 -0.0012045-7.6294e-6 -0.0019197-1.3351e-5 -0.003726-1.9073e-5 -0.0056458-3.8147e-6 -7.534e-4 -5.722e-6 -0.0015078-7.6294e-6 -0.0022612-5.722e-6 -0.0019197-1.1444e-5 -0.0035353-1.5259e-5 -0.005456-1.9073e-6 -4.6349e-4 -1.9073e-6 -8.8787e-4 -3.8147e-6 -0.0013514-5.722e-6 -0.0022402-9.5367e-6 -0.0045023-1.3351e-5 -0.0067434-1.9073e-6 -6.9618e-4 -1.9073e-6 -0.0013247-1.9073e-6 -0.0020199-3.8147e-6 -0.0019207-5.722e-6 -0.0030909-7.6294e-6 -0.0050116 0-7.5436e-4 0-0.0014315-1.9073e-6 -0.0021858 0-0.0022411-1.9073e-6 -0.0045424-1.9073e-6 -0.0067844 0-0.0025616 0-0.0047913 3.8147e-6 -0.0073528 0-9.0313e-4 1.9073e-6 -0.0018072 1.9073e-6 -0.0027103 1.9073e-6 -0.0016012 3.8147e-6 -0.0031891 5.722e-6 -0.0047903 1.9073e-6 -9.4891e-4 3.8147e-6 -0.0018969 5.722e-6 -0.0028467 1.9073e-6 -0.0016003 5.722e-6 -0.0029516 9.5367e-6 -0.0045519 1.9073e-6 -0.0010052 3.8147e-6 -0.0020103 7.6294e-6 -0.0030155 3.8147e-6 -0.0016003 5.722e-6 -0.0028133 1.1444e-5 -0.0044136 3.8147e-6 -0.0010643 7.6294e-6 -0.0021324 1.1444e-5 -0.0031967 3.8147e-6 -0.0016003 7.6294e-6 -0.0026665 1.5259e-5 -0.0042667 3.8147e-6 -9.9945e-4 7.6294e-6 -0.0020018 1.1444e-5 -0.0030012 5.722e-6 -0.0016003 1.1444e-5 -0.0029411 1.9073e-5 -0.0045404 5.722e-6 -9.7179e-4 9.5367e-6 -0.001955 1.5259e-5 -0.0029268 5.722e-6 -0.0012789 1.5259e-5 -0.0032883 2.2888e-5 -0.0045681 3.8147e-6 -9.3937e-4 9.5367e-6 -0.0018759 1.5259e-5 -0.0028152 9.5367e-6 -0.0015984 1.7166e-5 -0.0031195 2.861e-5 -0.0047188 5.722e-6 -9.1553e-4 1.1444e-5 -0.0018358 1.7166e-5 -0.0027514 9.5367e-6 -0.0015993 2.0981e-5 -0.0033531 3.2425e-5 -0.0049515 5.722e-6 -7.906e-4 1.1444e-5 -0.001585 1.7166e-5 -0.0023756 1.1444e-5 -0.0015984 2.861e-5 -0.0038433 4.0054e-5 -0.0054417 5.722e-6 -6.6566e-4 1.1444e-5 -0.0013332 1.5259e-5 -0.0019989 1.9073e-5 -0.0022373 3.4332e-5 -0.0042305 5.3406e-5 -0.0064678 3.8147e-6 -2.9087e-4 5.722e-6 -5.8174e-4 7.6294e-6 -8.7261e-4 6.6757e-5 -0.0076704 1.4114e-4 -0.015198 2.2697e-4 -0.022863 0-4.1962e-5 0-7.6294e-5 1.9073e-6 -1.1826e-4 2.861e-5 -0.0025549 5.5313e-5 -0.0049372 8.5831e-5 -0.0074921 1.9073e-6 -1.2016e-4 1.9073e-6 -2.3079e-4 3.8147e-6 -3.5095e-4 3.0518e-5 -0.0025549 5.3406e-5 -0.0044708 8.5831e-5 -0.0070248 5.722e-6 -3.8338e-4 9.5367e-6 -7.7629e-4 1.5259e-5 -0.0011597 2.861e-5 -0.0022345 5.5313e-5 -0.0042686 8.5831e-5 -0.0065031 3.8147e-6 -3.233e-4 7.6294e-6 -6.5041e-4 1.1444e-5 -9.737e-4 3.0518e-5 -0.0022345 6.1035e-5 -0.0044031 9.346e-5 -0.0066376 3.8147e-6 -2.9469e-4 7.6294e-6 -5.9032e-4 1.1444e-5 -8.8596e-4 3.624e-5 -0.0025539 6.2943e-5 -0.0043468 1.0109e-4 -0.0068998 3.8147e-6 -1.8024e-4 5.722e-6 -3.6526e-4 9.5367e-6 -5.455e-4 3.8147e-5 -0.002553 7.0572e-5 -0.0046892 1.1063e-4 -0.0072412 1.9073e-6 -8.7738e-5 3.8147e-6 -1.6689e-4 3.8147e-6 -2.5463e-4 3.891e-4 -0.024566 8.7166e-4 -0.049055 0.0014477-0.073575zm1.9653-5.5632 0.79237 0.61005c-0.54903 0.71312-0.97873 1.5029-1.2771 2.3475l-0.94287-0.33316c0.048716-0.13787 0.10051-0.27424 0.15532-0.4091 0 0 2.6703e-5 -6.485e-5 2.6703e-5 -6.485e-5 0.0036812-0.0090561 0.0073624-0.018072 0.01107-0.027114 1.1444e-4 -2.7943e-4 -1.5259e-5 3.5286e-5 9.9182e-5 -2.4319e-4 6.5231e-4 -0.0015926 0.0012932-0.0031538 0.0019474-0.0047455 2.2888e-4 -5.579e-4 2.8801e-4 -6.9809e-4 5.1689e-4 -0.001256 6.5422e-4 -0.0015917 0.0013103-0.0031872 0.0019646-0.0047789l9.9182e-5 -2.4128e-4c0.0021763-0.0052853 0.0043793-0.010626 0.0065632-0.015906l1.4114e-4 -3.376e-4c6.8092e-4 -0.001647 0.001318-0.0031853 0.0020008-0.0048313 1.1444e-4 -2.7847e-4 2.6703e-4 -6.4468e-4 3.8147e-4 -9.2316e-4 6.3515e-4 -0.0015326 0.0012836-0.0030928 0.0019188-0.0046244 1.1635e-4 -2.7847e-4 3.8147e-4 -9.1743e-4 4.9591e-4 -0.001195 6.5994e-4 -0.0015888 0.0012932-0.0031118 0.0019531-0.0047007l5.5313e-5 -1.2875e-4c0.0020752-0.0049915 0.0041904-0.010064 0.0062752-0.015052 2.327e-4 -5.5599e-4 4.673e-4 -0.0011187 7e-4 -0.0016747 5.703e-4 -0.0013599 0.0011044-0.0026379 0.0016747-0.0039978 2.327e-4 -5.5599e-4 5.8174e-4 -0.0013914 8.1444e-4 -0.0019474 5.4741e-4 -0.0013027 0.0010986-0.0026188 0.0016441-0.0039215 2.327e-4 -5.5599e-4 6.4468e-4 -0.0015364 8.7929e-4 -0.0020924 0.0018291-0.0043602 0.0036373-0.0086536 0.0054741-0.013011 2.327e-4 -5.5504e-4 6.6376e-4 -0.0015774 8.9836e-4 -0.0021324 5.0163e-4 -0.0011883 0.0010242-0.0024281 0.0015259-0.0036163 3.5286e-4 -8.3256e-4 6.5422e-4 -0.0015478 0.0010071-0.0023804 5.0163e-4 -0.0011873 0.0010414-0.0024614 0.001543-0.0036497 3.5286e-4 -8.316e-4 6.5613e-4 -0.0015478 0.001009-0.0023804 5.0163e-4 -0.0011873 9.9182e-4 -0.0023432 0.0014954-0.0035305 3.5286e-4 -8.3256e-4 5.8174e-4 -0.0013742 9.346e-4 -0.0022058 9.594e-4 -0.0022612 0.0018902-0.0044518 0.0028515-0.006711 3.5286e-4 -8.316e-4 7.4005e-4 -0.0017424 0.0010948-0.002574 4.5586e-4 -0.0010729 8.9455e-4 -0.0021009 0.0013523-0.0031748 3.5286e-4 -8.3065e-4 8.5831e-4 -0.002018 0.0012131-0.0028486 4.3297e-4 -0.0010166 9.1553e-4 -0.0021477 0.0013504-0.0031643 4.7302e-4 -0.0011082 8.4305e-4 -0.0019732 0.0013161-0.0030813 4.3297e-4 -0.0010166 8.0681e-4 -0.0018911 0.0012417-0.0029068 5.9319e-4 -0.0013847 9.9373e-4 -0.0023212 0.001585-0.003706 3.1471e-4 -7.3338e-4 6.6185e-4 -0.0015459 9.7656e-4 -0.0022793 8.297e-4 -0.0019379 0.0016708-0.0038958 0.0025024-0.0058336 3.376e-4 -7.8964e-4 6.5231e-4 -0.0015202 9.9182e-4 -0.0023098 5.9319e-4 -0.0013828 9.9945e-4 -0.002326 0.0015945-0.0037098 3.8719e-4 -9.0218e-4 8.0109e-4 -0.0018606 0.0011883-0.0027628 4.7684e-4 -0.0011063 0.0010509-0.0024414 0.0015278-0.0035477 3.643e-4 -8.4496e-4 6.6948e-4 -0.0015535 0.0010338-0.0023985 5.97e-4 -0.0013828 0.0011425-0.0026464 0.0017395-0.0040283 3.1471e-4 -7.3242e-4 6.1226e-4 -0.00142 9.2888e-4 -0.0021524 8.3542e-4 -0.001935 0.0017643-0.0040836 0.0026016-0.0060177 7.4387e-5 -1.688e-4 1.5259e-4 -3.5095e-4 2.2507e-4 -5.1975e-4 7.1907e-4 -0.0016584 0.0017147-0.0039549 0.0024338-0.0056124 2.4414e-4 -5.6267e-4 5.0545e-4 -0.0011644 7.4959e-4 -0.0017271 7.1907e-4 -0.0016575 0.0013046-0.003006 0.0020237-0.0046625 2.4414e-4 -5.6267e-4 4.7112e-4 -0.0010815 7.1526e-4 -0.0016441 7.2098e-4 -0.0016565 0.0013123-0.0030146 0.0020332-0.0046711 2.4414e-4 -5.6171e-4 4.7493e-4 -0.001092 7.2098e-4 -0.0016546 8.4114e-4 -0.0019321 0.0017147-0.0039358 0.0025578-0.005867 2.4796e-5 -5.6267e-5 8.2016e-5 -1.8597e-4 1.049e-4 -2.4223e-4 9.6512e-4 -0.0022068 0.0017605-0.0040274 0.0027256-0.0062332 2.2125e-4 -5.0545e-4 4.5395e-4 -0.0010376 6.752e-4 -0.001544 7.2289e-4 -0.0016546 0.0013237-0.0030222 0.0020485-0.0046759 2.4605e-4 -5.6171e-4 5.0735e-4 -0.0011587 7.534e-4 -0.0017204 7.2479e-4 -0.0016537 0.0013752-0.0031338 0.0021019-0.0047874 1.9646e-4 -4.4918e-4 4.2343e-4 -9.6798e-4 6.218e-4 -0.0014172 0.0027847-0.0063372 0.0056038-0.012735 0.0084019-0.019065 9.9182e-5 -2.2411e-4 1.564e-4 -3.5572e-4 2.5558e-4 -5.7983e-4 8.5258e-4 -0.0019264 0.0017071-0.0038586 0.0025597-0.005784 1.2398e-4 -2.8038e-4 2.4033e-4 -5.4264e-4 3.643e-4 -8.2302e-4 9.7466e-4 -0.0022001 0.0017452-0.0039368 0.0027218-0.0061369l4.9591e-5 -1.1253e-4c0.0029297-0.0065994 0.0058346-0.013126 0.0087795-0.019718 0 0 3.624e-5 -7.9155e-5 3.624e-5 -7.9155e-5 0.0049057-0.010986 0.0097923-0.021873 0.01474-0.032836l3.4332e-5 -8.0109e-5c0.30448-0.67482 0.68523-1.3073 1.1317-1.8872zm4.8704-3.3318 0.27967 0.9601c-0.86006 0.25052-1.6724 0.63527-2.4146 1.1436l-0.56506-0.82504c0.39901-0.27329 0.81987-0.51688 1.2595-0.72768 2.7084e-4 -1.297e-4 -1.3733e-4 6.485e-5 1.3351e-4 -6.485e-5 0.0086832-0.0041618 0.01727-0.0082626 0.025968-0.012402l5.8746e-4 -2.7847e-4c0.0015965-7.5912e-4 0.0031033-0.0014763 0.0047007-0.0022335 2.7084e-4 -1.297e-4 6.0177e-4 -2.861e-4 8.7261e-4 -4.158e-4 0.0067739-0.0032158 0.013486-0.0063934 0.020268-0.009594 2.718e-4 -1.2779e-4 2.8038e-4 -1.3161e-4 5.5218e-4 -2.594e-4 0.001544-7.2861e-4 0.0031786-0.0014992 0.0047226-0.0022278 2.718e-4 -1.2779e-4 5.5122e-4 -2.594e-4 8.2302e-4 -3.8719e-4 0.0016003-7.534e-4 0.0031738-0.0014954 0.0047741-0.0022469 2.718e-4 -1.2779e-4 1.7643e-4 -8.3923e-5 4.4823e-4 -2.1172e-4 0.0068426-0.0032177 0.01369-0.0064278 0.020542-0.0096302 2.718e-4 -1.2779e-4 2.861e-4 -1.3351e-4 5.5885e-4 -2.6131e-4 0.0016575-7.7438e-4 0.0032949-0.0015392 0.0049524-0.0023136l3.9291e-4 -1.8311e-4c0.0067434-0.0031452 0.013491-0.0062828 0.020244-0.0094147 2.7275e-4 -1.2589e-4 8.4877e-4 -3.9291e-4 0.0011215-5.2071e-4 0.0014391-6.6566e-4 0.0028353-0.0013123 0.0042744-0.0019798 5.455e-4 -2.5177e-4 0.0010509-4.8447e-4 0.0015965-7.3814e-4 0.0013838-6.4087e-4 0.0028515-0.001318 0.0042362-0.0019588 2.7275e-4 -1.2589e-4 4.158e-4 -1.9264e-4 6.8855e-4 -3.1853e-4 0.0048742-0.0022507 0.0096416-0.0044479 0.014521-0.0066929 5.455e-4 -2.4986e-4 6.5041e-4 -2.9945e-4 0.0011959-5.4932e-4 0.0014973-6.8855e-4 0.0029526-0.001358 0.0044498-0.0020447 5.4646e-4 -2.4986e-4 6.1989e-4 -2.8419e-4 0.0011663-5.3596e-4 0.001442-6.6185e-4 0.0029564-0.0013561 0.0043983-0.0020161 5.4646e-4 -2.5177e-4 6.6471e-4 -3.0518e-4 0.0012112-5.5504e-4 0.0048265-0.0022125 0.0096664-0.004425 0.014498-0.006628 2.737e-4 -1.2589e-4 4.53e-4 -2.0599e-4 7.2575e-4 -3.3188e-4 0.0014439-6.5804e-4 0.0028973-0.0013199 0.0043411-0.0019779 5.4741e-4 -2.4986e-4 9.9754e-4 -4.5395e-4 0.001545-7.0381e-4 0.0013885-6.3133e-4 0.0028219-0.0012836 0.0042114-0.001915 5.4741e-4 -2.4986e-4 7.5436e-4 -3.4332e-4 0.0013018-5.9128e-4 0.0065575-0.0029812 0.013031-0.0059128 0.019596-0.0088787 5.4836e-4 -2.4796e-4 8.9073e-4 -4.0245e-4 0.0014391-6.5041e-4 0.0013361-6.0272e-4 0.0026464-0.001194 0.0039816-0.0017967 8.2302e-4 -3.7003e-4 0.0011845-5.3406e-4 0.0020065-9.0408e-4 0.0013361-6.0272e-4 0.0025787-0.0011616 0.0039148-0.0017624 2.7466e-4 -1.2398e-4 0.001133-5.1117e-4 0.0014076-6.3324e-4 0.0044546-0.0020046 0.0089884-0.0040398 0.013447-0.0060368 5.4836e-4 -2.4605e-4 0.0014944-6.7139e-4 0.0020437-9.1553e-4 0.0012255-5.4932e-4 0.0024996-0.0011196 0.003726-0.0016689 5.4932e-4 -2.4414e-4 0.0015097-6.7329e-4 0.002059-9.1934e-4 0.0012817-5.7411e-4 0.0025101-0.0011215 0.0037928-0.0016956 5.4932e-4 -2.4414e-4 0.0014973-6.6757e-4 0.0020466-9.1171e-4 0.0042944-0.0019169 0.0085669-0.0038185 0.012865-0.0057278 5.4932e-4 -2.4414e-4 0.0015821-7.0381e-4 0.0021315-9.4795e-4 0.001173-5.2071e-4 0.0023489-0.0010433 0.0035219-0.0015621 8.2493e-4 -3.6621e-4 0.0016184-7.1907e-4 0.0024433-0.0010834 0.001173-5.2071e-4 0.0023565-0.0010452 0.0035295-0.001564 8.2493e-4 -3.6621e-4 0.0016298-7.2098e-4 0.0024557-0.0010872 0.0011177-4.94e-4 0.002285-0.0010109 0.0034027-0.0015049 8.2588e-4 -3.643e-4 0.0016203-7.1526e-4 0.0024462-0.0010796 0.0021238-9.3842e-4 0.0041695-0.0018406 0.0062943-0.0027771 8.2588e-4 -3.643e-4 0.0018492-8.1444e-4 0.0026751-0.0011787 0.0010071-4.425e-4 0.0021477-9.4604e-4 0.0031548-0.0013885 8.2588e-4 -3.624e-4 0.0020342-8.9455e-4 0.002861-0.0012569 0.0010624-4.673e-4 0.0020123-8.8501e-4 0.0030756-0.0013523 0.0011015-4.8256e-4 0.0019598-8.6021e-4 0.0030622-0.0013428 0.0010071-4.425e-4 0.0020342-8.9264e-4 0.0030413-0.0013351 0.0011024-4.8256e-4 0.0017138-7.4959e-4 0.0028172-0.0012321 0.0018473-8.0872e-4 0.003809-0.001667 0.0056572-0.0024757 0.0011034-4.8256e-4 0.0018711-8.1825e-4 0.0029745-0.0013008 0.001008-4.3869e-4 0.001997-8.6975e-4 0.003006-0.0013103 8.2779e-4 -3.6049e-4 0.0022612-9.861e-4 0.003089-0.0013485 0.0010653-4.6349e-4 0.0019875-8.6403e-4 0.0030527-0.0013294 0.0011034-4.8065e-4 0.0019226-8.3542e-4 0.003027-0.0013161 9.5272e-4 -4.158e-4 0.0019798-8.6212e-4 0.0029325-0.001276 0.0011044-4.7874e-4 0.0021591-9.3842e-4 0.0032635-0.0014172 9.5367e-4 -4.1389e-4 0.0018969-8.2397e-4 0.0028496-0.0012379 0.0016575-7.1716e-4 0.0039625-0.0017166 0.00562-0.0024338 7.8487e-4 -3.4142e-4 0.0016785-7.267e-4 0.0024643-0.0010662 0.0013809-5.9891e-4 0.0021391-9.2697e-4 0.0035219-0.001524 0.0010099-4.3678e-4 0.0019121-8.2588e-4 0.0029221-0.0012627 0.0011063-4.7684e-4 0.0020685-8.9264e-4 0.0031748-0.0013695 9.5367e-4 -4.1199e-4 0.0019712-8.5068e-4 0.0029259-0.0012608 8.297e-4 -3.5858e-4 0.0022907-9.8801e-4 0.0031204-0.0013447 0.0010109-4.3488e-4 0.0019207-8.2779e-4 0.0029316-0.0012627 0.0016603-7.1335e-4 0.0030127-0.0012951 0.004673-0.0020065 9.5558e-4 -4.1008e-4 0.002018-8.6784e-4 0.0029736-0.001276 0.0013838-5.9509e-4 0.0026999-0.0011597 0.0040846-0.0017529 8.9931e-4 -3.8528e-4 0.00173-7.4005e-4 0.0026293-0.0011253 0.0013838-5.9319e-4 0.0022135-9.4795e-4 0.0035982-0.0015392 8.4305e-4 -3.624e-4 0.0015554-6.6566e-4 0.0023994-0.0010262 0.0013847-5.9128e-4 0.0025654-0.0010967 0.0039501-0.001688 7.8773e-4 -3.3569e-4 0.0015259-6.5041e-4 0.0023127-9.861e-4 0.0016623-7.0953e-4 0.0029793-0.0012703 0.0046425-0.0019779 5.064e-4 -2.1553e-4 8.9359e-4 -3.8147e-4 0.0014-5.97e-4 0.0019407-8.2588e-4 0.0039673-0.001688 0.005908-0.002512 7.3242e-4 -3.109e-4 0.0015297-6.485e-4 0.0022612-9.594e-4 0.0013866-5.8937e-4 0.0025415-0.0010796 0.0039282-0.001667 8.4496e-4 -3.5858e-4 0.0016594-7.0381e-4 0.0025043-0.0010624 0.0011101-4.6921e-4 0.0023403-9.8991e-4 0.0034504-0.001461 9.5749e-4 -4.0436e-4 0.0018415-7.782e-4 0.002799-0.0011845 0.0013876-5.8556e-4 0.0025711-0.0010853 0.0039587-0.0016708 6.7616e-4 -2.861e-4 0.0013218-5.5885e-4 0.0019979-8.4496e-4 0.0022211-9.3651e-4 0.0038643-0.0016289 0.0060854-0.0025654 3.9482e-4 -1.6594e-4 8.0967e-4 -3.4142e-4 0.0012045-5.0735e-4 0.0016661-7.019e-4 0.0033436-0.0014076 0.0050097-0.0021076 6.2084e-4 -2.6131e-4 0.0012064-5.0545e-4 0.0018263-7.6675e-4 0.001667-7e-4 0.0026941-0.0011311 0.0043612-0.0018311 6.7711e-4 -2.8419e-4 0.0014019-5.8746e-4 0.002079-8.7166e-4 0.001668-7e-4 0.0031157-0.0013065 0.0047836-0.0020046 4.5204e-4 -1.8883e-4 8.1444e-4 -3.4142e-4 0.0012655-5.3024e-4 0.0044489-0.0018616 0.0081997-0.0034275 0.012651-0.0052814 4.5204e-4 -1.8883e-4 8.4877e-4 -3.5477e-4 0.0013008-5.4169e-4 0.0016689-6.9618e-4 0.0032425-0.0013504 0.0049133-0.0020447 5.6458e-4 -2.3651e-4 0.0011435-4.7684e-4 0.001709-7.1144e-4 0.0016699-6.9427e-4 0.0034037-0.0014133 0.0050745-0.0021076 3.3855e-4 -1.4114e-4 7.6962e-4 -3.1853e-4 0.0011091-4.5967e-4 0.0044546-0.0018482 0.0083752-0.0034714 0.012834-0.0053139 2.2697e-4 -9.346e-5 5.1212e-4 -2.0981e-4 7.3814e-4 -3.0327e-4 0.0016727-6.9046e-4 0.003849-0.0015888 0.0055218-0.0022793 4.53e-4 -1.8692e-4 9.7847e-4 -4.0245e-4 0.0014315-5.8937e-4 0.0016718-6.8855e-4 0.0034857-0.0014362 0.0051594-0.0021248 3.3951e-4 -1.3924e-4 7.9632e-4 -3.2806e-4 0.0011368-4.673e-4 0.0022306-9.1743e-4 0.0040293-0.0016556 0.0062609-0.0025711l2.2888e-5 -9.5367e-6c0.0041847-0.0017185 0.0086527-0.0035477 0.01284-0.0052586 4.53e-4 -1.8501e-4 9.613e-4 -3.9291e-4 0.0014143-5.7793e-4 0.0016756-6.8474e-4 0.00348-0.001421 0.0051556-0.0021038 3.9673e-4 -1.6212e-4 8.2016e-4 -3.3569e-4 0.0012169-4.9591e-4 0.001955-7.9727e-4 0.0039406-0.001606 0.0058966-0.0024014 1.1349e-4 -4.7684e-5 2.4319e-4 -9.9182e-5 3.5667e-4 -1.4687e-4 0.0044708-0.0018177 0.0087929-0.0035725 0.013267-0.0053844 1.1349e-4 -4.5776e-5 9.5367e-5 -3.8147e-5 2.0885e-4 -8.3923e-5 0.0022373-9.0599e-4 0.0042515-0.0017204 0.0064898-0.0026264 5.722e-5 -2.2888e-5 1.0014e-4 -4.0054e-5 1.564e-4 -6.2943e-5 0.0089512-0.0036163 0.017725-0.0071468 0.02669-0.010738 1.1349e-4 -4.3869e-5 1.3351e-4 -5.1498e-5 2.47e-4 -9.7275e-5 0.0022411-8.9836e-4 0.0042658-0.001709 0.0065079-0.0026054l1.2493e-4 -4.9591e-5c0.0067263-0.0026875 0.013326-0.0053158 0.02006-0.0079899 5.6267e-5 -2.2888e-5 1.6117e-4 -6.2943e-5 2.1839e-4 -8.5831e-5 0.0022449-8.9073e-4 0.0041342-0.0016403 0.0063791-0.0025311 1.1444e-4 -4.3869e-5 2.7466e-4 -1.0872e-4 3.8815e-4 -1.5259e-4 0.27253-0.10795 0.55087-0.20353 0.83509-0.28631z" fill="#fff"/></g></g></svg>
