<svg xmlns="http://www.w3.org/2000/svg" width="17.733" height="19" viewBox="0 0 17.733 19"><g transform="translate(-2)"><path d="M19.417,1.267H17.2V.317A.316.316,0,0,0,16.883,0H14.667a.316.316,0,0,0-.317.317v.95H7.383V.317A.316.316,0,0,0,7.067,0H4.85a.316.316,0,0,0-.317.317v.95H2.317A.316.316,0,0,0,2,1.583v17.1A.316.316,0,0,0,2.317,19h17.1a.316.316,0,0,0,.317-.317V1.583A.316.316,0,0,0,19.417,1.267ZM14.983.633h1.583v1.9H14.983V.633Zm-9.817,0H6.75v1.9H5.167V.633ZM2.633,1.9h1.9v.95a.316.316,0,0,0,.317.317H7.067a.316.316,0,0,0,.317-.317V1.9H14.35v.95a.316.316,0,0,0,.317.317h2.217A.316.316,0,0,0,17.2,2.85V1.9h1.9V4.75H2.633Zm0,16.467V5.383H19.1V18.367Z" transform="translate(0 0)" fill="#056321"/><path d="M19.55,23H11v9.183H23.033V23H19.55Zm-2.217.633H19.55V25.85H17.333ZM19.55,28.7H17.333V26.483H19.55Zm-5.067-2.217H16.7V28.7H14.483Zm0-2.85H16.7V25.85H14.483Zm-2.85,0H13.85V25.85H11.633Zm0,2.85H13.85V28.7H11.633ZM13.85,31.55H11.633V29.333H13.85Zm2.85,0H14.483V29.333H16.7Zm2.85,0H17.333V29.333H19.55Zm2.85,0H20.183V29.333H22.4Zm0-2.85H20.183V26.483H22.4Zm0-5.067V25.85H20.183V23.633Z" transform="translate(-6.15 -15.717)" fill="#056321"/></g></svg>