<svg xmlns="http://www.w3.org/2000/svg" width="14.604" height="14.604" viewBox="0 0 14.604 14.604"><g transform="translate(0.25 0.25)"><path d="M2.066,14.1h9.972A2.068,2.068,0,0,0,14.1,12.038V2.066A2.068,2.068,0,0,0,12.038,0H2.066A2.068,2.068,0,0,0,0,2.066v9.972A2.068,2.068,0,0,0,2.066,14.1ZM.826,2.066A1.241,1.241,0,0,1,2.066.826h9.972a1.241,1.241,0,0,1,1.24,1.24v9.972a1.241,1.241,0,0,1-1.24,1.24H2.066a1.241,1.241,0,0,1-1.24-1.24Z" transform="translate(0 0)" stroke="#000" stroke-width="0.5"/><path d="M124.719,128.438A3.719,3.719,0,1,0,121,124.719,3.723,3.723,0,0,0,124.719,128.438Zm0-6.611a2.892,2.892,0,1,1-2.892,2.892A2.9,2.9,0,0,1,124.719,121.826Z" transform="translate(-117.667 -117.667)" stroke="#000" stroke-width="0.5"/><path d="M362.24,63.479A1.24,1.24,0,1,0,361,62.24,1.241,1.241,0,0,0,362.24,63.479Zm0-1.653a.413.413,0,1,1-.413.413A.414.414,0,0,1,362.24,61.826Z" transform="translate(-351.055 -59.32)" stroke="#000" stroke-width="0.5"/></g></svg>