<?xml version="1.0" encoding="utf-8"?>
<!-- Generator: Adobe Illustrator 25.1.0, SVG Export Plug-In . SVG Version: 6.00 Build 0)  -->
<svg version="1.1" id="Ebene_1" xmlns="http://www.w3.org/2000/svg" xmlns:xlink="http://www.w3.org/1999/xlink" x="0px" y="0px"
     viewBox="0 0 24.1 24.8" style="enable-background:new 0 0 24.1 24.8;" xml:space="preserve">
<style type="text/css">
	.st0{fill:#007934;stroke:#007934;}
</style>
    <path class="st0" d="M23.2,22.2l-5.7-5.9c3.4-4.1,2.9-10.1-1.2-13.5S6.2-0.1,2.7,3.9s-2.9,10.1,1.2,13.5c1.7,1.5,3.9,2.2,6.2,2.2
	c2,0,3.9-0.6,5.5-1.7l5.7,5.9c0.5,0.5,1.3,0.5,1.8,0S23.6,22.7,23.2,22.2z M10.1,3c3.9,0,7.1,3.2,7.1,7.1s-3.2,7.1-7.1,7.1
	S3,14,3,10.1c0,0,0,0,0,0C3,6.2,6.2,3,10.1,3z"/>
</svg>