<svg xmlns="http://www.w3.org/2000/svg" width="14.519" height="14.519" viewBox="0 0 14.519 14.519"><g transform="translate(0.25 0.25)"><path d="M14.019,7.01a7.01,7.01,0,1,0-7.01,7.01A7.01,7.01,0,0,0,14.019,7.01ZM.637,7.01A6.372,6.372,0,1,1,7.01,13.382,6.372,6.372,0,0,1,.637,7.01Z" stroke="#000" stroke-width="0.5"/><path d="M225.976,137.937v-4.046h1.335l.211-1.341h-1.546v-.672c0-.35.115-.684.617-.684h1v-1.338h-1.425c-1.2,0-1.525.789-1.525,1.882v.811h-.822v1.341h.822v4.046Z" transform="translate(-218.698 -126.881)" stroke="#000" stroke-width="0.5"/></g></svg>