<svg enable-background="new 0 0 150 150" version="1.1" viewBox="0 0 150 150" xml:space="preserve" xmlns="http://www.w3.org/2000/svg">

	
		<path d="m33.66 112.42c1 0 1.81-0.85 1.81-1.89l-2.05-59.21c0-1.03-0.8-1.88-1.82-1.88h-8.68c-1 0-1.81 0.85-1.81 1.88l-3.51 59.21c0 1.04 0.81 1.89 1.82 1.89h14.24z"/>
	
	
		<path d="m65.9 112.42c1 0 1.82-0.85 1.82-1.89l-2.06-59.21c0-1.03-0.81-1.88-1.81-1.88h-8.68c-1 0-1.81 0.85-1.81 1.88l-3.52 59.21c0 1.04 0.82 1.89 1.82 1.89h14.24z"/>
	
	
		<path d="m97.38 112.42c1 0 1.81-0.85 1.81-1.89l-2.05-59.21c0-1.03-0.82-1.88-1.82-1.88h-8.67c-1.01 0-1.82 0.85-1.82 1.88l-3.5 59.21c0 1.04 0.81 1.89 1.81 1.89h14.24z"/>
	
	
		<path d="m129.82 112.42c0.98 0 1.81-0.85 1.81-1.89l-2.05-59.21c0-1.03-0.8-1.88-1.82-1.88h-8.68c-1 0-1.82 0.85-1.82 1.88l-3.51 59.21c0 1.04 0.81 1.89 1.82 1.89h14.25z"/>
	
	
		<path d="m2.23 45.24h145.69c1.15 0 2.07-0.54 2.07-2.19l-71.76-41.22c-3.17-1.03-4.67-1.1-7.27 0l-70.79 41.21c-0.01 1.23 0.91 2.2 2.06 2.2z"/>
	
	
		<rect x=".16" y="141.71" width="149.82" height="7.27"/>
	
	
		<rect x="7.37" y="130.82" width="135.34" height="6.34"/>
	
	
		<rect x="16" y="120.78" width="118.06" height="5.92"/>
	

</svg>
