<?xml version="1.0" encoding="utf-8"?>
<!-- Generator: Adobe Illustrator 24.2.1, SVG Export Plug-In . SVG Version: 6.00 Build 0)  -->
<svg version="1.1" id="Ebene_1" xmlns="http://www.w3.org/2000/svg" xmlns:xlink="http://www.w3.org/1999/xlink" x="0px" y="0px"
	 viewBox="0 0 150 150" style="enable-background:new 0 0 150 150;" xml:space="preserve">
<g>
	<g>
		<path d="M30.46,38.42c0-2.75,0-20.25,0-20.25c0-6.17,5.03-11.19,11.19-11.19h48.36V40c0,10.28,8.36,18.65,18.65,18.65h33.7v53.54
			v0.82v18.38c0,6.17-5.02,11.19-11.19,11.19c0,0-27.01,0-30.62,0c-3.62,0-3.52,7.46,0,7.46c3.51,0,30.62,0,30.62,0
			c10.28,0,18.65-8.37,18.65-18.65v-18.38l0,0V53.36L95.28-0.49H41.65c-10.28,0-18.64,8.37-18.64,18.65c0,0,0,17.67,0,20.25
			C23.02,41.01,30.46,41.18,30.46,38.42z M99.21,15.77l33.63,33.2h-24.11c-5.25,0-9.53-4.27-9.53-9.52V15.77z"/>
	</g>
</g>
<g>
	<g>
		<path d="M20.02,119.31c0.59,0,1.07-0.5,1.07-1.12l-1.22-35.11c0-0.61-0.48-1.11-1.08-1.11h-5.14c-0.59,0-1.07,0.5-1.07,1.11
			l-2.08,35.11c0,0.62,0.48,1.12,1.08,1.12H20.02z"/>
	</g>
	<g>
		<path d="M39.13,119.31c0.59,0,1.08-0.5,1.08-1.12l-1.22-35.11c0-0.61-0.48-1.11-1.07-1.11h-5.15c-0.59,0-1.07,0.5-1.07,1.11
			l-2.09,35.11c0,0.62,0.48,1.12,1.08,1.12H39.13z"/>
	</g>
	<g>
		<path d="M57.8,119.31c0.59,0,1.07-0.5,1.07-1.12l-1.22-35.11c0-0.61-0.48-1.11-1.08-1.11h-5.14c-0.6,0-1.08,0.5-1.08,1.11
			l-2.08,35.11c0,0.62,0.48,1.12,1.07,1.12H57.8z"/>
	</g>
	<g>
		<path d="M77.03,119.31c0.58,0,1.07-0.5,1.07-1.12l-1.22-35.11c0-0.61-0.48-1.11-1.08-1.11h-5.14c-0.59,0-1.08,0.5-1.08,1.11
			l-2.08,35.11c0,0.62,0.48,1.12,1.08,1.12H77.03z"/>
	</g>
	<g>
		<path d="M1.39,79.47h86.38c0.68,0,1.23-0.32,1.23-1.3L46.45,53.73c-1.88-0.61-2.77-0.65-4.31,0L0.17,78.17
			C0.16,78.9,0.7,79.47,1.39,79.47z"/>
	</g>
	<g>
		<rect x="0.16" y="136.67" width="88.83" height="4.31"/>
	</g>
	<g>
		<rect x="4.43" y="130.21" width="80.24" height="3.76"/>
	</g>
	<g>
		<rect x="9.55" y="124.26" width="70" height="3.51"/>
	</g>
</g>
</svg>
