<?xml version="1.0" encoding="utf-8"?>
<!-- Generator: Adobe Illustrator 24.2.3, SVG Export Plug-In . SVG Version: 6.00 Build 0)  -->
<svg version="1.1" id="Ebene_1" xmlns="http://www.w3.org/2000/svg" xmlns:xlink="http://www.w3.org/1999/xlink" x="0px" y="0px"
	 viewBox="0 0 150 150" style="enable-background:new 0 0 150 150;" xml:space="preserve">
<g>
	<ellipse transform="matrix(0.885 -0.4655 0.4655 0.885 -9.166 37.1838)" cx="70.7" cy="37.15" rx="34.9" ry="34.9"/>
	<path d="M127.71,142.16c-12.2,0-22.13-9.93-22.13-22.13c0-8.35,4.65-15.63,11.5-19.4c-0.18-0.17-0.35-0.35-0.53-0.52
		C104.67,88.66,88.5,81.62,70.7,81.62c-36.52,0-66.13,29.61-66.13,66.13h132.26c0-2.5-0.14-4.96-0.41-7.38
		C133.74,141.52,130.8,142.16,127.71,142.16z"/>
	<path d="M127.71,102.31c-3.04,0-5.91,0.77-8.41,2.13c-5.54,3-9.31,8.86-9.31,15.59c0,9.77,7.95,17.72,17.72,17.72
		c2.65,0,5.16-0.59,7.42-1.63c6.07-2.81,10.3-8.96,10.3-16.08C145.43,110.26,137.48,102.31,127.71,102.31z M137.61,122.57h-7.43
		v7.36h-4.94v-7.36h-7.41v-5.08h7.41v-7.36h4.94v7.36h7.43V122.57z"/>
</g>
</svg>
