<?xml version="1.0" encoding="utf-8"?>
<!-- Generator: Adobe Illustrator 24.2.3, SVG Export Plug-In . SVG Version: 6.00 Build 0)  -->
<svg version="1.1" id="Ebene_1" xmlns="http://www.w3.org/2000/svg" xmlns:xlink="http://www.w3.org/1999/xlink" x="0px" y="0px"
	 viewBox="0 0 150 150" style="enable-background:new 0 0 150 150;" xml:space="preserve">
<path d="M128.76,2H92.54h-35.6H20.72C19.22,2,18,3.22,18,4.72v36.22v104.08c0,1.31,0.93,2.41,2.17,2.67
	c0.18,0.04,0.36,0.06,0.55,0.06h108.04c0.19,0,0.37-0.02,0.55-0.06c1.24-0.25,2.17-1.35,2.17-2.67V40.94V4.72
	C131.48,3.22,130.26,2,128.76,2z M24,8h102v16H24V8z M126,142H24v-16h102V142z M126,120H24v-18h102V120z M126,96H24V78h102V96z
	 M126,72H24V54h102V72z"/>
</svg>
