<?xml version="1.0" encoding="utf-8"?>
<!-- Generator: Adobe Illustrator 24.2.1, SVG Export Plug-In . SVG Version: 6.00 Build 0)  -->
<svg version="1.1" id="Ebene_1" xmlns="http://www.w3.org/2000/svg" xmlns:xlink="http://www.w3.org/1999/xlink" x="0px" y="0px"
	 viewBox="0 0 150 150" style="enable-background:new 0 0 150 150;" xml:space="preserve">
<g>
	<g>
		<path d="M33.66,112.42c1,0,1.81-0.85,1.81-1.89l-2.05-59.21c0-1.03-0.8-1.88-1.82-1.88h-8.68c-1,0-1.81,0.85-1.81,1.88
			l-3.51,59.21c0,1.04,0.81,1.89,1.82,1.89H33.66z"/>
	</g>
	<g>
		<path d="M65.9,112.42c1,0,1.82-0.85,1.82-1.89l-2.06-59.21c0-1.03-0.81-1.88-1.81-1.88h-8.68c-1,0-1.81,0.85-1.81,1.88
			l-3.52,59.21c0,1.04,0.82,1.89,1.82,1.89H65.9z"/>
	</g>
	<g>
		<path d="M97.38,112.42c1,0,1.81-0.85,1.81-1.89l-2.05-59.21c0-1.03-0.82-1.88-1.82-1.88h-8.67c-1.01,0-1.82,0.85-1.82,1.88
			l-3.5,59.21c0,1.04,0.81,1.89,1.81,1.89H97.38z"/>
	</g>
	<g>
		<path d="M129.82,112.42c0.98,0,1.81-0.85,1.81-1.89l-2.05-59.21c0-1.03-0.8-1.88-1.82-1.88h-8.68c-1,0-1.82,0.85-1.82,1.88
			l-3.51,59.21c0,1.04,0.81,1.89,1.82,1.89H129.82z"/>
	</g>
	<g>
		<path d="M2.23,45.24h145.69c1.15,0,2.07-0.54,2.07-2.19L78.23,1.83c-3.17-1.03-4.67-1.1-7.27,0L0.17,43.04
			C0.16,44.27,1.08,45.24,2.23,45.24z"/>
	</g>
	<g>
		<rect x="0.16" y="141.71" width="149.82" height="7.27"/>
	</g>
	<g>
		<rect x="7.37" y="130.82" width="135.34" height="6.34"/>
	</g>
	<g>
		<rect x="16" y="120.78" width="118.06" height="5.92"/>
	</g>
</g>
</svg>
