<?xml version="1.0" encoding="utf-8"?>
<!-- Generator: Adobe Illustrator 24.2.3, SVG Export Plug-In . SVG Version: 6.00 Build 0)  -->
<svg version="1.1" id="Ebene_1" xmlns="http://www.w3.org/2000/svg" xmlns:xlink="http://www.w3.org/1999/xlink" x="0px" y="0px"
	 viewBox="0 0 150 150" style="enable-background:new 0 0 150 150;" xml:space="preserve">
<style type="text/css">
	.st0{fill-rule:evenodd;clip-rule:evenodd;}
</style>
<path d="M98.84,96.49v39.76H5.93V14.14h60.11v30.34c0,1.36,1.1,2.46,2.46,2.46h30.34v20.12l4.93-4.83V44.47c0-0.01,0-0.02,0-0.04
	c0-0.06,0-0.11-0.01-0.17c0-0.02,0-0.04-0.01-0.06c-0.01-0.07-0.02-0.14-0.03-0.22c0,0,0,0,0-0.01c-0.01-0.07-0.03-0.14-0.05-0.2
	c-0.01-0.02-0.01-0.04-0.02-0.06c-0.02-0.05-0.03-0.1-0.06-0.15c-0.01-0.02-0.01-0.04-0.02-0.06c-0.03-0.07-0.06-0.13-0.09-0.2
	c0,0,0-0.01-0.01-0.01c-0.03-0.06-0.07-0.12-0.11-0.18c-0.01-0.02-0.02-0.04-0.04-0.05c-0.03-0.04-0.06-0.09-0.1-0.13
	c-0.01-0.02-0.03-0.03-0.04-0.05c-0.05-0.06-0.1-0.11-0.15-0.16l-32.8-32.8c-0.05-0.05-0.11-0.1-0.16-0.15
	c-0.02-0.01-0.03-0.03-0.05-0.04c-0.04-0.03-0.09-0.07-0.13-0.1c-0.02-0.01-0.03-0.02-0.05-0.04c-0.06-0.04-0.12-0.07-0.18-0.11
	c0,0-0.01,0-0.01-0.01c-0.06-0.03-0.13-0.06-0.2-0.09c-0.02-0.01-0.04-0.01-0.05-0.02c-0.05-0.02-0.1-0.04-0.15-0.06
	c-0.02-0.01-0.04-0.01-0.06-0.02c-0.07-0.02-0.13-0.04-0.2-0.05c0,0,0,0-0.01,0c-0.07-0.01-0.14-0.02-0.22-0.03
	c-0.02,0-0.04,0-0.06-0.01c-0.06,0-0.11-0.01-0.17-0.01c-0.01,0-0.02,0-0.04,0H3.46C2.1,9.21,1,10.31,1,11.67v127.05
	c0,1.36,1.1,2.46,2.46,2.46h97.84c1.36,0,2.46-1.1,2.46-2.46V91.66l-1.01,0.99L98.84,96.49z M70.96,42.01V17.62l24.39,24.39
	C95.35,42.01,70.96,42.01,70.96,42.01z"/>
<path d="M148.42,38.45c0.67-0.87,0.62-2.12-0.17-2.92l-2.18-2.23c-0.79-0.81-2.04-0.88-2.92-0.23c-1.17-0.9-2.85-0.82-3.94,0.24
	l-10.37,10.16l-35.8,35.09L82.67,88.73l8.89,9.07l10.37-10.16l35.33-34.63c-0.49,3.28-2.02,6.3-4.43,8.66L114.1,80.02
	c-0.97,0.95-0.99,2.51-0.03,3.48c0.48,0.49,1.12,0.74,1.76,0.74c0.62,0,1.24-0.23,1.72-0.7l18.73-18.35
	c3.86-3.79,6.02-8.85,6.07-14.26l0.03-2.95l5.71-5.6C149.18,41.32,149.29,39.64,148.42,38.45z"/>
<path d="M63.98,117.36c3.88-1.29,12.93-5.21,23.93-15.99l-8.89-9.07c-11,10.78-15.1,19.75-16.47,23.61
	C62.24,116.8,63.08,117.66,63.98,117.36z"/>
<path class="st0" d="M37.76,80.52c3.1,0.06,5.78-2.44,5.8-5.73c0.02-3.19-2.48-5.81-5.78-5.81c-3.43-0.01-5.76,2.79-5.79,5.73
	C31.97,77.83,34.53,80.57,37.76,80.52z"/>
<path class="st0" d="M72.67,93.61c-2.52-5.55-5.04-11.32-7.57-16.97c-3.42,5.23-6.81,10.81-10.21,16
	c-3.01-3.22-5.99-6.81-8.99-10.02c-5.48,7.08-10.93,14.39-16.45,20.87c11.97,0,23.87,0,35.78,0
	C67.11,100.62,69.56,97.27,72.67,93.61z"/>
<path class="st0" d="M61.83,109.41l-38.81,0c-1.24,0-1.45,0.06-1.45-1.18c-0.01-15.23-0.01-30.31-0.01-45.54c0-0.11,0-0.14,0-0.24
	c0.04-0.79,0.39-1.1,1.18-1.12c0.1,0,0.21,0.02,0.31,0.02c19.55,0,39.11,0.01,58.66,0.01c1.27,0,1.48,0.23,1.48,1.49
	c0.01,6.72,0.01,13.28,0.01,19.82c0.92-0.87,1.86-1.74,2.85-2.63c0-6.17-0.01-12.35,0-18.52c0-1.63-1.25-3.01-3-3.01
	c-20.45,0.02-40.91,0.01-61.36,0.01c-1.77,0-2.96,1.2-2.96,2.97c0,16.13,0,32.26,0,48.38c0,0.21,0.01,0.42,0.05,0.62
	c0.25,1.41,1.5,2.34,2.93,2.34c10.22-0.02,20.44-0.01,30.66-0.01c2.58,0,5.16,0,7.74,0C60.52,111.91,61.09,110.76,61.83,109.41z"/>
</svg>
