<svg enable-background="new 0 0 150 150" version="1.1" viewBox="0 0 150 150" xml:space="preserve" xmlns="http://www.w3.org/2000/svg">
<style type="text/css">
	.st0{fill:#1D1D1B;}
</style>

	<path class="st0" d="m45.86 124.42c-3.28 3.29-9.55 4.24-12.81 0.99l-8.43-8.45c-3.26-3.27-2.29-9.52 0.99-12.79l34.93-34.95c-7.32-5.91-20.23-3.41-27.28 3.65l-26.3 26.28c-7.4 7.4-9.81 21.27-2.74 28.34l18.29 18.3c7.08 7.05 20.95 4.65 28.34-2.75l26.3-26.26c7.05-7.06 9.55-19.98 3.64-27.31l-34.93 34.95z"/>
	<path class="st0" d="m145.72 22.62-18.3-18.29c-7.06-7.07-20.94-4.67-28.34 2.73l-26.29 26.27c-7.05 7.05-9.55 19.98-3.64 27.3l34.94-34.94c3.29-3.29 9.54-4.24 12.79-0.99l8.45 8.45c3.25 3.26 2.29 9.51-0.98 12.79l-34.95 34.95c7.31 5.92 20.23 3.41 27.29-3.64l26.28-26.27c7.41-7.43 9.81-21.29 2.75-28.36z"/>
	<path class="st0" d="m48.04 101.7c3.61 3.6 9.46 3.6 13.06 0l40.92-40.92c3.61-3.61 3.61-9.45 0-13.05-3.6-3.6-9.44-3.6-13.05 0l-40.93 40.92c-3.59 3.61-3.59 9.47 0 13.05z"/>

</svg>
