<svg enable-background="new 0 0 150 150" version="1.1" viewBox="0 0 150 150" xml:space="preserve" xmlns="http://www.w3.org/2000/svg">

	
		<path d="m30.46 38.42v-20.25c0-6.17 5.03-11.19 11.19-11.19h48.36v33.02c0 10.28 8.36 18.65 18.65 18.65h33.7v72.74c0 6.17-5.02 11.19-11.19 11.19h-30.62c-3.62 0-3.52 7.46 0 7.46h30.62c10.28 0 18.65-8.37 18.65-18.65v-78.03l-54.54-53.85h-53.63c-10.28 0-18.64 8.37-18.64 18.65v20.25c0.01 2.6 7.45 2.77 7.45 0.01zm68.75-22.65 33.63 33.2h-24.11c-5.25 0-9.53-4.27-9.53-9.52v-23.68z"/>
	


	
		<path d="m46.85 81.31-33.83 23.56c-0.11 0.08-0.24 0.14-0.34 0.21v30.08c0 3.78 3.07 6.86 6.85 6.86h16.89v-18.87c0-2.52 2.05-4.57 4.57-4.57h11.72c2.52 0 4.57 2.05 4.57 4.57v18.87h16.57c3.79 0 6.88-3.08 6.88-6.86v-30.25c-0.01 0-0.03-0.02-0.04-0.03l-33.84-23.57z"/>
	
	
		<path d="M80.73,63.58c0-2.52-2.07-4.58-4.59-4.58h-6.72c-2.39,0-4.34,1.87-4.53,4.21l15.83,11.04V63.58z"/>
	
	
		<path d="m84.6 99.25c1.01 0.7 2.15 1.03 3.27 1.03 1.81 0 3.59-0.86 4.7-2.45 1.81-2.6 1.18-6.17-1.41-7.97l-44.31-30.86-44.3 30.86c-2.59 1.8-3.22 5.37-1.43 7.97 1.11 1.6 2.9 2.45 4.7 2.45 1.13 0 2.26-0.34 3.27-1.03l37.76-26.3 37.75 26.3z"/>
	

</svg>
