<svg enable-background="new 0 0 150 150" version="1.1" viewBox="0 0 150 150" xml:space="preserve" xmlns="http://www.w3.org/2000/svg">
<path d="M150,45.06L131.04,26.1L67.92,89.22l13.97,13.97l-13.32,6.19l-6.87-6.87l-5.43,11.67c-0.76,1.64-0.43,3.52,0.85,4.8  c0.82,0.82,1.9,1.26,3,1.26c0.61,0,1.22-0.13,1.81-0.4l24.88-11.57l15.39-15.39v40.34c0,1.59-1.29,2.88-2.88,2.88H9.3  c-1.59,0-2.88-1.29-2.88-2.88V42.76h28.02V14.74H99.3c1.59,0,2.88,1.29,2.88,2.88V44.2l6.68-6.68v-19.9c0-5.27-4.29-9.56-9.56-9.56  H32.76c-2.55,0-4.95,0.99-6.76,2.8L2.55,34.31c-1.81,1.8-2.8,4.21-2.8,6.76v92.15c0,5.27,4.29,9.56,9.56,9.56l89.99,0  c5.27,0,9.56-4.29,9.56-9.56V86.2L150,45.06z"/>
</svg>
