<svg enable-background="new 0 0 150 150" version="1.1" viewBox="0 0 150 150" xml:space="preserve" xmlns="http://www.w3.org/2000/svg">

	
		<path d="m30.46 38.42v-20.25c0-6.17 5.03-11.19 11.19-11.19h48.36v33.02c0 10.28 8.36 18.65 18.65 18.65h33.7v72.74c0 6.17-5.02 11.19-11.19 11.19h-30.62c-3.62 0-3.52 7.46 0 7.46h30.62c10.28 0 18.65-8.37 18.65-18.65v-78.03l-54.54-53.85h-53.63c-10.28 0-18.64 8.37-18.64 18.65v20.25c0.01 2.6 7.45 2.77 7.45 0.01zm68.75-22.65 33.63 33.2h-24.11c-5.25 0-9.53-4.27-9.53-9.52v-23.68z"/>
	

<path d="m72.05 61.31h-58.26c-7.15 0-12.95 5.8-12.95 12.94v51.8c0 7.15 5.8 12.95 12.95 12.95h58.26c7.15 0 12.95-5.8 12.95-12.95v-51.8c0-7.14-5.8-12.94-12.95-12.94zm-45.84 6.3c5.8 0 10.5 4.7 10.5 10.5s-4.7 10.5-10.5 10.5-10.5-4.7-10.5-10.5 4.7-10.5 10.5-10.5zm-12.42 51.97 12.04-19.32 7.41 11.9 17.1-27.42 21.71 34.84h-58.26z"/>
</svg>
