<?xml version="1.0" encoding="utf-8"?>
<!-- Generator: Adobe Illustrator 24.2.1, SVG Export Plug-In . SVG Version: 6.00 Build 0)  -->
<svg version="1.1" id="Ebene_1" xmlns="http://www.w3.org/2000/svg" xmlns:xlink="http://www.w3.org/1999/xlink" x="0px" y="0px"
	 viewBox="0 0 150 150" style="enable-background:new 0 0 150 150;" xml:space="preserve">
<g>
	<g>
		<path d="M30.46,38.42c0-2.75,0-20.25,0-20.25c0-6.17,5.03-11.19,11.19-11.19h48.36V40c0,10.28,8.36,18.65,18.65,18.65h33.7v53.54
			v0.82v18.38c0,6.17-5.02,11.19-11.19,11.19c0,0-27.01,0-30.62,0c-3.62,0-3.52,7.46,0,7.46c3.51,0,30.62,0,30.62,0
			c10.28,0,18.65-8.37,18.65-18.65v-18.38l0,0V53.36L95.28-0.49H41.65c-10.28,0-18.64,8.37-18.64,18.65c0,0,0,17.67,0,20.25
			C23.02,41.01,30.46,41.18,30.46,38.42z M99.21,15.77l33.63,33.2h-24.11c-5.25,0-9.53-4.27-9.53-9.52V15.77z"/>
	</g>
</g>
<g>
	<g>
		<path d="M46.85,81.31l-33.83,23.56c-0.11,0.08-0.24,0.14-0.34,0.21v30.08c0,3.78,3.07,6.86,6.85,6.86h16.89v-18.87
			c0-2.52,2.05-4.57,4.57-4.57h11.72c2.52,0,4.57,2.05,4.57,4.57v18.87h16.57c3.79,0,6.88-3.08,6.88-6.86v-30.25
			c-0.01,0-0.03-0.02-0.04-0.03L46.85,81.31z"/>
	</g>
	<g>
		<path d="M80.73,63.58c0-2.52-2.07-4.58-4.59-4.58h-6.72c-2.39,0-4.34,1.87-4.53,4.21l15.83,11.04V63.58z"/>
	</g>
	<g>
		<path d="M84.6,99.25c1.01,0.7,2.15,1.03,3.27,1.03c1.81,0,3.59-0.86,4.7-2.45c1.81-2.6,1.18-6.17-1.41-7.97L46.85,59L2.55,89.86
			c-2.59,1.8-3.22,5.37-1.43,7.97c1.11,1.6,2.9,2.45,4.7,2.45c1.13,0,2.26-0.34,3.27-1.03l37.76-26.3L84.6,99.25z"/>
	</g>
</g>
</svg>
