<svg enable-background="new 0 0 150 150" version="1.1" viewBox="0 0 150 150" xml:space="preserve" xmlns="http://www.w3.org/2000/svg">

	<ellipse transform="matrix(.885 -.4655 .4655 .885 -9.166 37.184)" cx="70.7" cy="37.15" rx="34.9" ry="34.9"/>
	<path d="m127.71 142.16c-12.2 0-22.13-9.93-22.13-22.13 0-8.35 4.65-15.63 11.5-19.4-0.18-0.17-0.35-0.35-0.53-0.52-11.88-11.45-28.05-18.49-45.85-18.49-36.52 0-66.13 29.61-66.13 66.13h132.26c0-2.5-0.14-4.96-0.41-7.38-2.68 1.15-5.62 1.79-8.71 1.79z"/>
	<path d="m127.71 102.31c-3.04 0-5.91 0.77-8.41 2.13-5.54 3-9.31 8.86-9.31 15.59 0 9.77 7.95 17.72 17.72 17.72 2.65 0 5.16-0.59 7.42-1.63 6.07-2.81 10.3-8.96 10.3-16.08 0-9.78-7.95-17.73-17.72-17.73zm9.9 20.26h-7.43v7.36h-4.94v-7.36h-7.41v-5.08h7.41v-7.36h4.94v7.36h7.43v5.08z"/>

</svg>
