<svg enable-background="new 0 0 150 150" version="1.1" viewBox="0 0 150 150" xml:space="preserve" xmlns="http://www.w3.org/2000/svg">
<path d="m35.02 31.62h22.49c1.19 0 2.16-0.97 2.16-2.16s-0.97-2.16-2.16-2.16h-22.49c-1.19 0-2.16 0.97-2.16 2.16s0.97 2.16 2.16 2.16z"/>
<path d="m35.02 42.22h34.81c1.19 0 2.16-0.97 2.16-2.16s-0.97-2.16-2.16-2.16h-34.81c-1.19 0-2.16 0.97-2.16 2.16s0.97 2.16 2.16 2.16z"/>
<path d="m92.17 50.66c0-1.19-0.97-2.16-2.16-2.16h-54.99c-1.19 0-2.16 0.97-2.16 2.16s0.97 2.16 2.16 2.16h54.99c1.19 0 2.16-0.96 2.16-2.16z"/>
<path d="m81.54 61.27c0-1.19-0.97-2.16-2.16-2.16h-44.36c-1.19 0-2.16 0.97-2.16 2.16s0.97 2.16 2.16 2.16h44.36c1.19-0.01 2.16-0.97 2.16-2.16z"/>
<path d="m59.36 71.87c0-1.19-0.97-2.16-2.16-2.16h-22.18c-1.19 0-2.16 0.97-2.16 2.16s0.97 2.16 2.16 2.16h22.18c1.19 0 2.16-0.97 2.16-2.16z"/>
<path d="m148.47 34.79c0.59-0.76 0.54-1.85-0.15-2.56l-1.91-1.95c-0.69-0.71-1.79-0.77-2.56-0.2-1.03-0.78-2.5-0.72-3.45 0.21l-9.08 8.9-31.33 30.72-9.08 8.9 7.78 7.94 9.08-8.9 30.93-30.32c-0.43 2.87-1.76 5.52-3.87 7.58l-16.39 16.07c-0.85 0.83-0.86 2.2-0.03 3.05 0.42 0.43 0.98 0.65 1.54 0.65 0.54 0 1.09-0.21 1.51-0.62l16.39-16.07c3.38-3.31 5.27-7.75 5.32-12.48l0.03-2.58 5-4.9c0.94-0.93 1.04-2.4 0.27-3.44z"/>
<path d="m74.56 103.87c3.4-1.13 11.32-4.56 20.95-14l-7.78-7.94c-9.63 9.44-13.22 17.29-14.42 20.67-0.28 0.78 0.46 1.53 1.25 1.27z"/>
<path d="m109.38 55.61v-15.55-0.03c0-0.05 0-0.1-0.01-0.15v-0.05c-0.01-0.06-0.02-0.13-0.03-0.19v-0.01c-0.01-0.06-0.03-0.12-0.04-0.18-0.01-0.02-0.01-0.04-0.02-0.05-0.01-0.05-0.03-0.09-0.05-0.13-0.01-0.02-0.01-0.03-0.02-0.05-0.02-0.06-0.05-0.12-0.08-0.17v-0.01c-0.03-0.05-0.06-0.1-0.09-0.16-0.01-0.02-0.02-0.03-0.03-0.05-0.03-0.04-0.06-0.08-0.08-0.11-0.01-0.01-0.02-0.03-0.03-0.04-0.04-0.05-0.08-0.1-0.13-0.14l-28.74-28.72c-0.05-0.05-0.09-0.09-0.14-0.13-0.01-0.01-0.03-0.02-0.04-0.03-0.04-0.03-0.08-0.06-0.11-0.08-0.02-0.01-0.03-0.02-0.05-0.03-0.05-0.03-0.1-0.06-0.16-0.09h-0.01c-0.06-0.03-0.11-0.06-0.17-0.08-0.02-0.01-0.03-0.01-0.05-0.02-0.04-0.02-0.09-0.03-0.13-0.05-0.02-0.01-0.03-0.01-0.05-0.02-0.06-0.03-0.12-0.04-0.18-0.06h-0.01c-0.06-0.01-0.13-0.02-0.19-0.03h-0.05c-0.05 0-0.1-0.01-0.15-0.01h-0.03-56.93c-1.19 0-2.16 0.97-2.16 2.16v15.12h-16.2c-1.19 0-2.16 0.97-2.16 2.16v111.22c0 1.19 0.97 2.16 2.16 2.16h85.65c1.19 0 2.16-0.97 2.16-2.16v-15.12h16.2c1.19 0 2.16-0.97 2.16-2.16v-41.2l-0.88 0.86-3.43 3.36v34.81h-81.35v-106.9h52.62v26.56c0 1.19 0.97 2.16 2.16 2.16h26.56v17.62l4.31-4.23zm-22.67 69.11v12.96h-81.33v-106.9h14.04v91.78c0 1.19 0.97 2.16 2.16 2.16h65.13zm-6.04-86.81v-21.36l21.35 21.35-21.35 0.01z"/>
</svg>
