<svg enable-background="new 0 0 150 150" version="1.1" viewBox="0 0 150 150" xml:space="preserve" xmlns="http://www.w3.org/2000/svg">

	
		<path d="m30.46 38.42v-20.25c0-6.17 5.03-11.19 11.19-11.19h48.36v33.02c0 10.28 8.36 18.65 18.65 18.65h33.7v72.74c0 6.17-5.02 11.19-11.19 11.19h-30.62c-3.62 0-3.52 7.46 0 7.46h30.62c10.28 0 18.65-8.37 18.65-18.65v-78.03l-54.54-53.85h-53.63c-10.28 0-18.64 8.37-18.64 18.65v20.25c0.01 2.6 7.45 2.77 7.45 0.01zm68.75-22.65 33.63 33.2h-24.11c-5.25 0-9.53-4.27-9.53-9.52v-23.68z"/>
	


	
		<path d="m20.02 119.31c0.59 0 1.07-0.5 1.07-1.12l-1.22-35.11c0-0.61-0.48-1.11-1.08-1.11h-5.14c-0.59 0-1.07 0.5-1.07 1.11l-2.08 35.11c0 0.62 0.48 1.12 1.08 1.12h8.44z"/>
	
	
		<path d="m39.13 119.31c0.59 0 1.08-0.5 1.08-1.12l-1.22-35.11c0-0.61-0.48-1.11-1.07-1.11h-5.15c-0.59 0-1.07 0.5-1.07 1.11l-2.09 35.11c0 0.62 0.48 1.12 1.08 1.12h8.44z"/>
	
	
		<path d="m57.8 119.31c0.59 0 1.07-0.5 1.07-1.12l-1.22-35.11c0-0.61-0.48-1.11-1.08-1.11h-5.14c-0.6 0-1.08 0.5-1.08 1.11l-2.08 35.11c0 0.62 0.48 1.12 1.07 1.12h8.46z"/>
	
	
		<path d="m77.03 119.31c0.58 0 1.07-0.5 1.07-1.12l-1.22-35.11c0-0.61-0.48-1.11-1.08-1.11h-5.14c-0.59 0-1.08 0.5-1.08 1.11l-2.08 35.11c0 0.62 0.48 1.12 1.08 1.12h8.45z"/>
	
	
		<path d="m1.39 79.47h86.38c0.68 0 1.23-0.32 1.23-1.3l-42.55-24.44c-1.88-0.61-2.77-0.65-4.31 0l-41.97 24.44c-0.01 0.73 0.53 1.3 1.22 1.3z"/>
	
	
		<rect x=".16" y="136.67" width="88.83" height="4.31"/>
	
	
		<rect x="4.43" y="130.21" width="80.24" height="3.76"/>
	
	
		<rect x="9.55" y="124.26" width="70" height="3.51"/>
	

</svg>
