<svg enable-background="new 0 0 150 150" version="1.1" viewBox="0 0 150 150" xml:space="preserve" xmlns="http://www.w3.org/2000/svg">
<path d="m128.76 2h-108.04c-1.5 0-2.72 1.22-2.72 2.72v140.3c0 1.31 0.93 2.41 2.17 2.67 0.18 0.04 0.36 0.06 0.55 0.06h108.04c0.19 0 0.37-0.02 0.55-0.06 1.24-0.25 2.17-1.35 2.17-2.67v-140.3c0-1.5-1.22-2.72-2.72-2.72zm-2.76 6v16h-102v-16h102zm-102 88v-18h102v18h-102zm102 6v18h-102v-18h102zm-102-30v-18h102v18h-102zm0-24v-18h102v18h-102zm0 94v-16h102v16h-102z"/>
</svg>
