<?xml version="1.0" encoding="utf-8"?>
<!-- Generator: Adobe Illustrator 24.2.1, SVG Export Plug-In . SVG Version: 6.00 Build 0)  -->
<svg version="1.1" id="Ebene_1" xmlns="http://www.w3.org/2000/svg" xmlns:xlink="http://www.w3.org/1999/xlink" x="0px" y="0px"
	 viewBox="0 0 150 150" style="enable-background:new 0 0 150 150;" xml:space="preserve">
<g>
	<g>
		<path d="M30.46,38.42c0-2.75,0-20.25,0-20.25c0-6.17,5.03-11.19,11.19-11.19h48.36V40c0,10.28,8.36,18.65,18.65,18.65h33.7v53.54
			v0.82v18.38c0,6.17-5.02,11.19-11.19,11.19c0,0-27.01,0-30.62,0c-3.62,0-3.52,7.46,0,7.46c3.51,0,30.62,0,30.62,0
			c10.28,0,18.65-8.37,18.65-18.65v-18.38l0,0V53.36L95.28-0.49H41.65c-10.28,0-18.64,8.37-18.64,18.65c0,0,0,17.67,0,20.25
			C23.02,41.01,30.46,41.18,30.46,38.42z M99.21,15.77l33.63,33.2h-24.11c-5.25,0-9.53-4.27-9.53-9.52V15.77z"/>
	</g>
</g>
<path d="M72.05,61.31H13.79c-7.15,0-12.95,5.8-12.95,12.94v51.8c0,7.15,5.8,12.95,12.95,12.95h58.26C79.2,139,85,133.2,85,126.05
	v-51.8C85,67.11,79.2,61.31,72.05,61.31z M26.21,67.61c5.8,0,10.5,4.7,10.5,10.5c0,5.8-4.7,10.5-10.5,10.5s-10.5-4.7-10.5-10.5
	C15.71,72.31,20.41,67.61,26.21,67.61z M13.79,119.58l12.04-19.32l7.41,11.9l17.1-27.42l21.71,34.84H13.79z"/>
</svg>
