<svg enable-background="new 0 0 150 150" version="1.1" viewBox="0 0 150 150" xml:space="preserve" xmlns="http://www.w3.org/2000/svg">
<style type="text/css">
	.st0{fill-rule:evenodd;clip-rule:evenodd;}
</style>
<path d="m98.84 96.49v39.76h-92.91v-122.11h60.11v30.34c0 1.36 1.1 2.46 2.46 2.46h30.34v20.12l4.93-4.83v-17.76-0.04c0-0.06 0-0.11-0.01-0.17 0-0.02 0-0.04-0.01-0.06-0.01-0.07-0.02-0.14-0.03-0.22v-0.01c-0.01-0.07-0.03-0.14-0.05-0.2-0.01-0.02-0.01-0.04-0.02-0.06-0.02-0.05-0.03-0.1-0.06-0.15-0.01-0.02-0.01-0.04-0.02-0.06-0.03-0.07-0.06-0.13-0.09-0.2 0 0 0-0.01-0.01-0.01-0.03-0.06-0.07-0.12-0.11-0.18-0.01-0.02-0.02-0.04-0.04-0.05-0.03-0.04-0.06-0.09-0.1-0.13-0.01-0.02-0.03-0.03-0.04-0.05-0.05-0.06-0.1-0.11-0.15-0.16l-32.8-32.8c-0.05-0.05-0.11-0.1-0.16-0.15-0.02-0.01-0.03-0.03-0.05-0.04-0.04-0.03-0.09-0.07-0.13-0.1-0.02-0.01-0.03-0.02-0.05-0.04-0.06-0.04-0.12-0.07-0.18-0.11 0 0-0.01 0-0.01-0.01-0.06-0.03-0.13-0.06-0.2-0.09-0.02-0.01-0.04-0.01-0.05-0.02l-0.15-0.06c-0.02-0.01-0.04-0.01-0.06-0.02-0.07-0.02-0.13-0.04-0.2-0.05h-0.01c-0.07-0.01-0.14-0.02-0.22-0.03-0.02 0-0.04 0-0.06-0.01-0.06 0-0.11-0.01-0.17-0.01h-0.04-65.03c-1.36 0.03-2.46 1.13-2.46 2.49v127.05c0 1.36 1.1 2.46 2.46 2.46h97.84c1.36 0 2.46-1.1 2.46-2.46v-47.06l-1.01 0.99-3.91 3.84zm-27.88-54.48v-24.39l24.39 24.39h-24.39z"/>
<path d="m148.42 38.45c0.67-0.87 0.62-2.12-0.17-2.92l-2.18-2.23c-0.79-0.81-2.04-0.88-2.92-0.23-1.17-0.9-2.85-0.82-3.94 0.24l-10.37 10.16-35.8 35.09-10.37 10.17 8.89 9.07 10.37-10.16 35.33-34.63c-0.49 3.28-2.02 6.3-4.43 8.66l-18.73 18.35c-0.97 0.95-0.99 2.51-0.03 3.48 0.48 0.49 1.12 0.74 1.76 0.74 0.62 0 1.24-0.23 1.72-0.7l18.73-18.35c3.86-3.79 6.02-8.85 6.07-14.26l0.03-2.95 5.71-5.6c1.09-1.06 1.2-2.74 0.33-3.93z"/>
<path d="m63.98 117.36c3.88-1.29 12.93-5.21 23.93-15.99l-8.89-9.07c-11 10.78-15.1 19.75-16.47 23.61-0.31 0.89 0.53 1.75 1.43 1.45z"/>
<path class="st0" d="m37.76 80.52c3.1 0.06 5.78-2.44 5.8-5.73 0.02-3.19-2.48-5.81-5.78-5.81-3.43-0.01-5.76 2.79-5.79 5.73-0.02 3.12 2.54 5.86 5.77 5.81z"/>
<path class="st0" d="m72.67 93.61c-2.52-5.55-5.04-11.32-7.57-16.97-3.42 5.23-6.81 10.81-10.21 16-3.01-3.22-5.99-6.81-8.99-10.02-5.48 7.08-10.93 14.39-16.45 20.87h35.78c1.88-2.87 4.33-6.22 7.44-9.88z"/>
<path class="st0" d="m61.83 109.41h-38.81c-1.24 0-1.45 0.06-1.45-1.18-0.01-15.23-0.01-30.31-0.01-45.54v-0.24c0.04-0.79 0.39-1.1 1.18-1.12 0.1 0 0.21 0.02 0.31 0.02 19.55 0 39.11 0.01 58.66 0.01 1.27 0 1.48 0.23 1.48 1.49 0.01 6.72 0.01 13.28 0.01 19.82 0.92-0.87 1.86-1.74 2.85-2.63 0-6.17-0.01-12.35 0-18.52 0-1.63-1.25-3.01-3-3.01-20.45 0.02-40.91 0.01-61.36 0.01-1.77 0-2.96 1.2-2.96 2.97v48.38c0 0.21 0.01 0.42 0.05 0.62 0.25 1.41 1.5 2.34 2.93 2.34 10.22-0.02 20.44-0.01 30.66-0.01h7.74c0.41-0.91 0.98-2.06 1.72-3.41z"/>
</svg>
