<?xml version="1.0" encoding="utf-8"?>
<!-- Generator: Adobe Illustrator 24.2.1, SVG Export Plug-In . SVG Version: 6.00 Build 0)  -->
<svg version="1.1" id="Ebene_1" xmlns="http://www.w3.org/2000/svg" xmlns:xlink="http://www.w3.org/1999/xlink" x="0px" y="0px"
	 viewBox="0 0 150 150" style="enable-background:new 0 0 150 150;" xml:space="preserve">
<g>
	<g>
		<path d="M75,43.69l-54.27,37.8c-0.18,0.13-0.39,0.23-0.55,0.34v48.26c0,6.06,4.93,11.01,10.99,11.01h27.1v-30.28
			c0-4.04,3.3-7.34,7.33-7.34h18.8c4.04,0,7.33,3.29,7.33,7.34v30.28h26.58c6.08,0,11.03-4.95,11.03-11.01V81.56
			c-0.02,0-0.05-0.03-0.07-0.05L75,43.69z"/>
	</g>
	<g>
		<path d="M129.35,15.25c0-4.04-3.32-7.35-7.36-7.35h-10.78c-3.84,0-6.97,3-7.27,6.76l25.4,17.7V15.25z"/>
	</g>
	<g>
		<path d="M135.56,72.47c1.61,1.12,3.45,1.66,5.24,1.66c2.91,0,5.76-1.39,7.54-3.93c2.91-4.17,1.89-9.9-2.27-12.78L75,7.9
			L3.93,57.42c-4.15,2.88-5.17,8.61-2.29,12.78c1.79,2.57,4.65,3.93,7.54,3.93c1.81,0,3.63-0.54,5.24-1.66L75,30.28L135.56,72.47z"
			/>
	</g>
</g>
</svg>
