<svg enable-background="new 0 0 150 150" version="1.1" viewBox="0 0 150 150" xml:space="preserve" xmlns="http://www.w3.org/2000/svg">
<path d="m18.81 34.8h25.69c1.36 0 2.46-1.1 2.46-2.46s-1.1-2.46-2.46-2.46h-25.69c-1.36 0-2.46 1.1-2.46 2.46s1.1 2.46 2.46 2.46z"/>
<path d="m18.81 46.91h39.76c1.36 0 2.46-1.1 2.46-2.46s-1.1-2.46-2.46-2.46h-39.76c-1.36 0-2.46 1.1-2.46 2.46s1.1 2.46 2.46 2.46z"/>
<path d="m84.09 56.56c0-1.36-1.1-2.46-2.46-2.46h-62.82c-1.36 0-2.46 1.1-2.46 2.46s1.1 2.46 2.46 2.46h62.81c1.37 0 2.47-1.1 2.47-2.46z"/>
<path d="m71.95 68.67c0-1.36-1.1-2.46-2.46-2.46h-50.68c-1.36 0-2.46 1.1-2.46 2.46s1.1 2.46 2.46 2.46h50.67c1.37 0 2.47-1.1 2.47-2.46z"/>
<path d="m46.61 80.78c0-1.36-1.1-2.46-2.46-2.46h-25.34c-1.36 0-2.46 1.1-2.46 2.46s1.1 2.46 2.46 2.46h25.34c1.36 0 2.46-1.1 2.46-2.46z"/>
<path d="m98.82 96.46v39.76h-92.89v-122.1h60.1v30.33c0 1.36 1.1 2.46 2.46 2.46h30.33v20.12l4.93-4.83v-17.75-0.04c0-0.06 0-0.11-0.01-0.17 0-0.02 0-0.04-0.01-0.06-0.01-0.07-0.02-0.14-0.03-0.22v-0.01c-0.01-0.07-0.03-0.14-0.05-0.2-0.01-0.02-0.01-0.04-0.02-0.06-0.02-0.05-0.03-0.1-0.06-0.15-0.01-0.02-0.01-0.04-0.02-0.06-0.03-0.07-0.06-0.13-0.09-0.2 0 0 0-0.01-0.01-0.01-0.03-0.06-0.07-0.12-0.11-0.18-0.01-0.02-0.02-0.04-0.04-0.05-0.03-0.04-0.06-0.09-0.1-0.13-0.01-0.02-0.03-0.03-0.04-0.05-0.05-0.06-0.1-0.11-0.15-0.16l-32.8-32.8c-0.05-0.05-0.11-0.1-0.16-0.15-0.02-0.01-0.03-0.03-0.05-0.04-0.04-0.03-0.09-0.07-0.13-0.1-0.02-0.01-0.03-0.02-0.05-0.04-0.06-0.04-0.12-0.07-0.18-0.11 0 0-0.01 0-0.01-0.01-0.06-0.03-0.13-0.06-0.2-0.09-0.02-0.01-0.04-0.01-0.05-0.02l-0.15-0.06c-0.01 0.02-0.03 0.02-0.05 0.01-0.07-0.02-0.13-0.04-0.2-0.05h-0.01c-0.07-0.01-0.14-0.02-0.22-0.03-0.02 0-0.04 0-0.06-0.01-0.06 0-0.11-0.01-0.17-0.01h-0.04-65.02c-1.36 0-2.46 1.1-2.46 2.46v127.03c0 1.36 1.1 2.46 2.46 2.46h97.82c1.36 0 2.46-1.1 2.46-2.46v-47.05l-1.01 0.99-3.91 3.84zm-27.87-54.47v-24.39l24.39 24.39h-24.39z"/>
<path d="m148.4 38.43c0.67-0.87 0.62-2.12-0.17-2.92l-2.18-2.23c-0.79-0.81-2.04-0.88-2.92-0.23-1.17-0.9-2.85-0.82-3.94 0.24l-10.37 10.16-35.8 35.09-10.36 10.16 8.89 9.07 10.37-10.16 35.33-34.63c-0.49 3.28-2.02 6.3-4.42 8.66l-18.74 18.36c-0.97 0.95-0.99 2.51-0.03 3.48 0.48 0.49 1.12 0.74 1.76 0.74 0.62 0 1.24-0.23 1.72-0.7l18.72-18.35c3.86-3.78 6.02-8.85 6.07-14.25l0.03-2.95 5.71-5.6c1.09-1.07 1.2-2.75 0.33-3.94z"/>
<path d="m63.97 117.33c3.88-1.29 12.93-5.21 23.93-15.99l-8.89-9.07c-11 10.78-15.1 19.75-16.47 23.6-0.31 0.9 0.54 1.76 1.43 1.46z"/>
</svg>
