<?xml version="1.0" encoding="utf-8"?>
<!-- Generator: Adobe Illustrator 24.2.3, SVG Export Plug-In . SVG Version: 6.00 Build 0)  -->
<svg version="1.1" id="Ebene_1" xmlns="http://www.w3.org/2000/svg" xmlns:xlink="http://www.w3.org/1999/xlink" x="0px" y="0px"
	 viewBox="0 0 150 150" style="enable-background:new 0 0 150 150;" xml:space="preserve">
<path d="M35.02,31.62h22.49c1.19,0,2.16-0.97,2.16-2.16s-0.97-2.16-2.16-2.16H35.02c-1.19,0-2.16,0.97-2.16,2.16
	C32.86,30.65,33.83,31.62,35.02,31.62z"/>
<path d="M35.02,42.22h34.81c1.19,0,2.16-0.97,2.16-2.16s-0.97-2.16-2.16-2.16H35.02c-1.19,0-2.16,0.97-2.16,2.16
	S33.83,42.22,35.02,42.22z"/>
<path d="M92.17,50.66c0-1.19-0.97-2.16-2.16-2.16H35.02c-1.19,0-2.16,0.97-2.16,2.16s0.97,2.16,2.16,2.16h54.99
	C91.2,52.82,92.17,51.86,92.17,50.66z"/>
<path d="M81.54,61.27c0-1.19-0.97-2.16-2.16-2.16H35.02c-1.19,0-2.16,0.97-2.16,2.16s0.97,2.16,2.16,2.16h44.36
	C80.57,63.42,81.54,62.46,81.54,61.27z"/>
<path d="M59.36,71.87c0-1.19-0.97-2.16-2.16-2.16H35.02c-1.19,0-2.16,0.97-2.16,2.16s0.97,2.16,2.16,2.16H57.2
	C58.39,74.03,59.36,73.06,59.36,71.87z"/>
<path d="M148.47,34.79c0.59-0.76,0.54-1.85-0.15-2.56l-1.91-1.95c-0.69-0.71-1.79-0.77-2.56-0.2c-1.03-0.78-2.5-0.72-3.45,0.21
	l-9.08,8.9L99.99,69.91l-9.08,8.9l7.78,7.94l9.08-8.9l30.93-30.32c-0.43,2.87-1.76,5.52-3.87,7.58l-16.39,16.07
	c-0.85,0.83-0.86,2.2-0.03,3.05c0.42,0.43,0.98,0.65,1.54,0.65c0.54,0,1.09-0.21,1.51-0.62l16.39-16.07
	c3.38-3.31,5.27-7.75,5.32-12.48l0.03-2.58l5-4.9C149.14,37.3,149.24,35.83,148.47,34.79z"/>
<path d="M74.56,103.87c3.4-1.13,11.32-4.56,20.95-14l-7.78-7.94c-9.63,9.44-13.22,17.29-14.42,20.67
	C73.03,103.38,73.77,104.13,74.56,103.87z"/>
<path d="M109.38,55.61V40.06c0-0.01,0-0.02,0-0.03c0-0.05,0-0.1-0.01-0.15c0-0.02,0-0.04,0-0.05c-0.01-0.06-0.02-0.13-0.03-0.19
	c0,0,0,0,0-0.01c-0.01-0.06-0.03-0.12-0.04-0.18c-0.01-0.02-0.01-0.04-0.02-0.05c-0.01-0.05-0.03-0.09-0.05-0.13
	c-0.01-0.02-0.01-0.03-0.02-0.05c-0.02-0.06-0.05-0.12-0.08-0.17v-0.01c-0.03-0.05-0.06-0.1-0.09-0.16
	c-0.01-0.02-0.02-0.03-0.03-0.05c-0.03-0.04-0.06-0.08-0.08-0.11c-0.01-0.01-0.02-0.03-0.03-0.04c-0.04-0.05-0.08-0.1-0.13-0.14
	L80.03,9.82c-0.05-0.05-0.09-0.09-0.14-0.13c-0.01-0.01-0.03-0.02-0.04-0.03c-0.04-0.03-0.08-0.06-0.11-0.08
	c-0.02-0.01-0.03-0.02-0.05-0.03c-0.05-0.03-0.1-0.06-0.16-0.09h-0.01c-0.06-0.03-0.11-0.06-0.17-0.08
	c-0.02-0.01-0.03-0.01-0.05-0.02c-0.04-0.02-0.09-0.03-0.13-0.05c-0.02-0.01-0.03-0.01-0.05-0.02C79.06,9.26,79,9.25,78.94,9.23
	c0,0,0,0-0.01,0c-0.06-0.01-0.13-0.02-0.19-0.03c-0.02,0-0.04,0-0.05,0c-0.05,0-0.1-0.01-0.15-0.01c-0.01,0-0.02,0-0.03,0H21.58
	c-1.19,0-2.16,0.97-2.16,2.16v15.12H3.22c-1.19,0-2.16,0.97-2.16,2.16v111.22c0,1.19,0.97,2.16,2.16,2.16h85.65
	c1.19,0,2.16-0.97,2.16-2.16v-15.12h16.2c1.19,0,2.16-0.97,2.16-2.16v-41.2l-0.88,0.86l-3.43,3.36v34.81H23.73V13.5h52.62v26.56
	c0,1.19,0.97,2.16,2.16,2.16h26.56v17.62L109.38,55.61z M86.71,124.72v12.96H5.38V30.78h14.04v91.78c0,1.19,0.97,2.16,2.16,2.16
	H86.71z M80.67,37.91V16.55l21.35,21.35L80.67,37.91L80.67,37.91z"/>
</svg>
