<?xml version="1.0" encoding="utf-8"?>
<!-- Generator: Adobe Illustrator 24.2.1, SVG Export Plug-In . SVG Version: 6.00 Build 0)  -->
<svg version="1.1" id="Ebene_1" xmlns="http://www.w3.org/2000/svg" xmlns:xlink="http://www.w3.org/1999/xlink" x="0px" y="0px"
	 viewBox="0 0 150 150" style="enable-background:new 0 0 150 150;" xml:space="preserve">
<style type="text/css">
	.st0{fill:#1D1D1B;}
</style>
<g>
	<path class="st0" d="M45.86,124.42c-3.28,3.29-9.55,4.24-12.81,0.99l-8.43-8.45c-3.26-3.27-2.29-9.52,0.99-12.79l34.93-34.95
		c-7.32-5.91-20.23-3.41-27.28,3.65L6.96,99.15c-7.4,7.4-9.81,21.27-2.74,28.34l18.29,18.3c7.08,7.05,20.95,4.65,28.34-2.75
		l26.3-26.26c7.05-7.06,9.55-19.98,3.64-27.31L45.86,124.42z"/>
	<path class="st0" d="M145.72,22.62l-18.3-18.29c-7.06-7.07-20.94-4.67-28.34,2.73L72.79,33.33c-7.05,7.05-9.55,19.98-3.64,27.3
		l34.94-34.94c3.29-3.29,9.54-4.24,12.79-0.99l8.45,8.45c3.25,3.26,2.29,9.51-0.98,12.79L89.4,80.89
		c7.31,5.92,20.23,3.41,27.29-3.64l26.28-26.27C150.38,43.55,152.78,29.69,145.72,22.62z"/>
	<path class="st0" d="M48.04,101.7c3.61,3.6,9.46,3.6,13.06,0l40.92-40.92c3.61-3.61,3.61-9.45,0-13.05c-3.6-3.6-9.44-3.6-13.05,0
		L48.04,88.65C44.45,92.26,44.45,98.12,48.04,101.7z"/>
</g>
</svg>
