<?xml version="1.0" encoding="utf-8"?>
<!-- Generator: Adobe Illustrator 24.2.1, SVG Export Plug-In . SVG Version: 6.00 Build 0)  -->
<svg version="1.1" id="Layer_1" xmlns="http://www.w3.org/2000/svg" xmlns:xlink="http://www.w3.org/1999/xlink" x="0px" y="0px"
	 viewBox="0 0 16 16" style="enable-background:new 0 0 16 16;" xml:space="preserve">
<style type="text/css">
	.st0{fill:#333333;}
</style>
<g id="Layer_2">
	<g>
		<path class="st0" d="M13.8,15c0.7,0,1.2-0.6,1.2-1.4V4.8c0-0.8-0.5-1.4-1.2-1.4h-6c-0.1,0-0.1,0-0.2-0.1c0,0,0,0,0,0l-1-1.6
			C6.3,1.3,5.9,1,5.5,1H2.2C1.5,1,1,1.6,1,2.4v11.2C1,14.4,1.5,15,2.2,15L13.8,15L13.8,15z M2,13.6V2.4c0-0.1,0.1-0.3,0.2-0.3h3.4
			c0.1,0,0.1,0,0.2,0.1c0,0,0,0,0,0l1,1.6c0.2,0.4,0.6,0.7,1,0.7h6c0.1,0,0.2,0.1,0.2,0.3v8.8c0,0.1-0.1,0.3-0.2,0.3H2.2
			C2.1,13.9,2,13.8,2,13.6z"/>
	</g>
</g>
</svg>
