<svg enable-background="new 0 0 16 16" version="1.1" viewBox="0 0 16 16" xml:space="preserve" xmlns="http://www.w3.org/2000/svg">
<style type="text/css">
	.st0{fill:#333333;}
</style>

	
		<path class="st0" d="m13.8 15c0.7 0 1.2-0.6 1.2-1.4v-8.8c0-0.8-0.5-1.4-1.2-1.4h-6c-0.1 0-0.1 0-0.2-0.1l-1-1.6c-0.3-0.4-0.7-0.7-1.1-0.7h-3.3c-0.7 0-1.2 0.6-1.2 1.4v11.2c0 0.8 0.5 1.4 1.2 1.4h11.6zm-11.8-1.4v-11.2c0-0.1 0.1-0.3 0.2-0.3h3.4c0.1 0 0.1 0 0.2 0.1l1 1.6c0.2 0.4 0.6 0.7 1 0.7h6c0.1 0 0.2 0.1 0.2 0.3v8.8c0 0.1-0.1 0.3-0.2 0.3h-11.6c-0.1 0-0.2-0.1-0.2-0.3z"/>
	

</svg>
